<?xml version="1.0" encoding="utf-8"?>
<!-- Generator: Adobe Illustrator 23.0.4, SVG Export Plug-In . SVG Version: 6.00 Build 0)  -->
<svg version="1.1" id="Camada_1" xmlns="http://www.w3.org/2000/svg" xmlns:xlink="http://www.w3.org/1999/xlink" x="0px" y="0px"
	 viewBox="0 0 750 500" style="enable-background:new 0 0 750 500;" xml:space="preserve">
<style type="text/css">
	.st0{clip-path:url(#SVGID_2_);}
	.st1{clip-path:url(#SVGID_4_);}
	.st2{fill:url(#SVGID_5_);}
	.st3{opacity:0.5;fill:#FFFFFF;enable-background:new    ;}
	.st4{opacity:0.5;fill:url(#SVGID_6_);enable-background:new    ;}
	.st5{opacity:0.5;fill:url(#SVGID_7_);enable-background:new    ;}
	.st6{opacity:0.5;fill:url(#SVGID_8_);enable-background:new    ;}
	.st7{opacity:0.5;fill:url(#SVGID_9_);enable-background:new    ;}
	.st8{opacity:0.5;fill:url(#SVGID_10_);enable-background:new    ;}
	.st9{opacity:0.5;fill:url(#SVGID_11_);enable-background:new    ;}
	.st10{fill:url(#SVGID_12_);}
	.st11{fill:url(#SVGID_13_);}
	.st12{opacity:0.5;fill:url(#SVGID_14_);enable-background:new    ;}
	.st13{opacity:0.5;fill:url(#SVGID_15_);enable-background:new    ;}
	.st14{opacity:0.5;fill:url(#SVGID_16_);enable-background:new    ;}
	.st15{opacity:0.5;fill:url(#SVGID_17_);enable-background:new    ;}
	.st16{opacity:0.5;fill:url(#SVGID_18_);enable-background:new    ;}
	.st17{opacity:0.5;fill:url(#SVGID_19_);enable-background:new    ;}
	.st18{fill:url(#SVGID_20_);}
	.st19{fill:url(#SVGID_21_);}
	.st20{opacity:0.5;fill:url(#SVGID_22_);enable-background:new    ;}
	.st21{opacity:0.5;fill:url(#SVGID_23_);enable-background:new    ;}
	.st22{opacity:0.5;fill:url(#SVGID_24_);enable-background:new    ;}
	.st23{opacity:0.5;fill:url(#SVGID_25_);enable-background:new    ;}
	.st24{opacity:0.5;fill:url(#SVGID_26_);enable-background:new    ;}
	.st25{opacity:0.5;fill:url(#SVGID_27_);enable-background:new    ;}
	.st26{fill:url(#SVGID_28_);}
	.st27{fill:url(#SVGID_29_);}
	.st28{opacity:0.5;fill:url(#SVGID_30_);enable-background:new    ;}
	.st29{opacity:0.5;fill:url(#SVGID_31_);enable-background:new    ;}
	.st30{opacity:0.5;fill:url(#SVGID_32_);enable-background:new    ;}
	.st31{opacity:0.5;fill:url(#SVGID_33_);enable-background:new    ;}
	.st32{opacity:0.5;fill:url(#SVGID_34_);enable-background:new    ;}
	.st33{opacity:0.5;fill:url(#SVGID_35_);enable-background:new    ;}
	.st34{fill:url(#SVGID_36_);}
	.st35{fill:url(#SVGID_37_);}
	.st36{opacity:0.5;fill:url(#SVGID_38_);enable-background:new    ;}
	.st37{opacity:0.5;fill:url(#SVGID_39_);enable-background:new    ;}
	.st38{opacity:0.5;fill:url(#SVGID_40_);enable-background:new    ;}
	.st39{opacity:0.5;fill:url(#SVGID_41_);enable-background:new    ;}
	.st40{opacity:0.5;fill:url(#SVGID_42_);enable-background:new    ;}
	.st41{fill:url(#SVGID_43_);}
	.st42{fill:url(#SVGID_44_);}
	.st43{opacity:0.5;fill:url(#SVGID_45_);enable-background:new    ;}
	.st44{opacity:0.5;fill:url(#SVGID_46_);enable-background:new    ;}
	.st45{opacity:0.5;fill:url(#SVGID_47_);enable-background:new    ;}
	.st46{opacity:0.5;fill:url(#SVGID_48_);enable-background:new    ;}
	.st47{opacity:0.5;fill:url(#SVGID_49_);enable-background:new    ;}
	.st48{opacity:0.5;fill:url(#SVGID_50_);enable-background:new    ;}
	.st49{fill:url(#SVGID_51_);}
	.st50{fill:url(#SVGID_52_);}
	.st51{opacity:0.5;fill:url(#SVGID_53_);enable-background:new    ;}
	.st52{opacity:0.5;fill:url(#SVGID_54_);enable-background:new    ;}
	.st53{opacity:0.5;fill:url(#SVGID_55_);enable-background:new    ;}
	.st54{opacity:0.5;fill:url(#SVGID_56_);enable-background:new    ;}
	.st55{opacity:0.5;fill:url(#SVGID_57_);enable-background:new    ;}
	.st56{fill:url(#SVGID_58_);}
	.st57{fill:url(#SVGID_59_);}
	.st58{opacity:0.5;fill:url(#SVGID_60_);enable-background:new    ;}
	.st59{opacity:0.5;fill:url(#SVGID_61_);enable-background:new    ;}
	.st60{opacity:0.5;fill:url(#SVGID_62_);enable-background:new    ;}
	.st61{opacity:0.5;fill:url(#SVGID_63_);enable-background:new    ;}
	.st62{opacity:0.5;fill:url(#SVGID_64_);enable-background:new    ;}
	.st63{fill:url(#SVGID_65_);}
	.st64{fill:url(#SVGID_66_);}
	.st65{opacity:0.5;fill:url(#SVGID_67_);enable-background:new    ;}
	.st66{opacity:0.5;fill:url(#SVGID_68_);enable-background:new    ;}
	.st67{opacity:0.5;fill:url(#SVGID_69_);enable-background:new    ;}
	.st68{opacity:0.5;fill:url(#SVGID_70_);enable-background:new    ;}
	.st69{opacity:0.5;fill:url(#SVGID_71_);enable-background:new    ;}
	.st70{opacity:0.5;fill:url(#SVGID_72_);enable-background:new    ;}
	.st71{fill:url(#SVGID_73_);}
	.st72{fill:url(#SVGID_74_);}
	.st73{opacity:0.5;fill:url(#SVGID_75_);enable-background:new    ;}
	.st74{opacity:0.5;fill:url(#SVGID_76_);enable-background:new    ;}
	.st75{opacity:0.5;fill:url(#SVGID_77_);enable-background:new    ;}
	.st76{opacity:0.5;fill:url(#SVGID_78_);enable-background:new    ;}
	.st77{opacity:0.5;fill:url(#SVGID_79_);enable-background:new    ;}
	.st78{opacity:0.5;fill:url(#SVGID_80_);enable-background:new    ;}
	.st79{fill:url(#SVGID_81_);}
	.st80{fill:url(#SVGID_82_);}
	.st81{opacity:0.5;fill:url(#SVGID_83_);enable-background:new    ;}
	.st82{opacity:0.5;fill:url(#SVGID_84_);enable-background:new    ;}
	.st83{opacity:0.5;fill:url(#SVGID_85_);enable-background:new    ;}
	.st84{opacity:0.5;fill:url(#SVGID_86_);enable-background:new    ;}
	.st85{opacity:0.5;fill:url(#SVGID_87_);enable-background:new    ;}
	.st86{opacity:0.5;fill:url(#SVGID_88_);enable-background:new    ;}
	.st87{fill:url(#SVGID_89_);}
	.st88{fill:url(#SVGID_90_);}
	.st89{opacity:0.5;fill:url(#SVGID_91_);enable-background:new    ;}
	.st90{opacity:0.5;fill:url(#SVGID_92_);enable-background:new    ;}
	.st91{opacity:0.5;fill:url(#SVGID_93_);enable-background:new    ;}
	.st92{opacity:0.5;fill:url(#SVGID_94_);enable-background:new    ;}
	.st93{fill:url(#SVGID_95_);}
	.st94{fill:url(#SVGID_96_);}
	.st95{opacity:0.5;fill:url(#SVGID_97_);enable-background:new    ;}
	.st96{opacity:0.5;fill:url(#SVGID_98_);enable-background:new    ;}
	.st97{opacity:0.5;fill:url(#SVGID_99_);enable-background:new    ;}
	.st98{opacity:0.5;fill:url(#SVGID_100_);enable-background:new    ;}
	.st99{opacity:0.5;fill:url(#SVGID_101_);enable-background:new    ;}
	.st100{fill:url(#SVGID_102_);enable-background:new    ;}
	.st101{fill:url(#SVGID_103_);enable-background:new    ;}
	.st102{opacity:0.7;fill:url(#SVGID_104_);enable-background:new    ;}
	.st103{opacity:0.7;fill:url(#SVGID_105_);enable-background:new    ;}
</style>
<title>galaxy</title>
<g>
	<g id="BACKGROUND2">
		<g>
			<defs>
				<rect id="SVGID_1_" x="0.1" y="0.2" width="750" height="500"/>
			</defs>
			<clipPath id="SVGID_2_">
				<use xlink:href="#SVGID_1_"  style="overflow:visible;"/>
			</clipPath>
			<g class="st0">
				<g>
					<defs>
						<rect id="SVGID_3_" x="0.1" y="0.2" width="750" height="500"/>
					</defs>
					<clipPath id="SVGID_4_">
						<use xlink:href="#SVGID_3_"  style="overflow:visible;"/>
					</clipPath>
					<g class="st1">

							<radialGradient id="SVGID_5_" cx="375.12" cy="249.8" r="318.6887" gradientTransform="matrix(1 0 0 -1 0 500)" gradientUnits="userSpaceOnUse">
							<stop  offset="6.000000e-02" style="stop-color:#001256"/>
							<stop  offset="0.96" style="stop-color:#00092B"/>
						</radialGradient>
						<rect x="0.1" y="0.2" class="st2" width="750" height="500"/>
					</g>
				</g>
				<path class="st3" d="M92.3,39.8c0.5,1.2,1.1,2.3,1.8,3.3c1,0.7,2.2,1.4,3.3,1.9c-1.2,0.5-2.3,1.1-3.3,1.8
					c-0.7,1-1.3,2.2-1.8,3.3c-0.5-1.2-1.1-2.3-1.8-3.3c-1-0.7-2.2-1.3-3.3-1.8c1.2-0.5,2.3-1.1,3.3-1.8C91.2,42.1,91.8,41,92.3,39.8
					z"/>
				<path class="st3" d="M711.9,445.5c0,0,1.9,4.4,3,5.5s5.5,3,5.5,3s-4.4,1.9-5.5,3s-3,5.5-3,5.5s-1.9-4.4-3-5.5s-5.5-3-5.5-3
					s4.4-1.9,5.5-3S711.9,445.5,711.9,445.5z"/>
				<path class="st3" d="M492.1,333.3c0,0,1.9,4.4,3,5.5s5.5,3,5.5,3s-4.4,1.9-5.5,3s-3,5.5-3,5.5s-1.9-4.4-3-5.5s-5.5-3-5.5-3
					s4.4-1.9,5.5-3S492.1,333.3,492.1,333.3z"/>
				<path class="st3" d="M459.1,425.7c0.6,1.4,1.3,2.8,2.2,4c1.2,0.9,2.6,1.6,4,2.2c-1.4,0.6-2.8,1.3-4,2.2c-0.9,1.2-1.6,2.6-2.2,4
					c-0.6-1.4-1.3-2.8-2.2-4c-1.2-0.9-2.6-1.6-4-2.2c1.4-0.6,2.8-1.3,4-2.2C457.7,428.5,458.5,427.1,459.1,425.7z"/>
				<path class="st3" d="M319.5,79.1c0.6-1.4,1-2.9,1.3-4.4c-0.3-1.5-0.7-3-1.3-4.4c1.4,0.6,2.9,1,4.4,1.3c1.5-0.3,3-0.7,4.4-1.3
					c-0.6,1.4-1,2.9-1.3,4.4c0.3,1.5,0.7,3,1.3,4.4c-1.4-0.6-2.9-1-4.4-1.3C322.4,78.1,320.9,78.5,319.5,79.1z"/>
				<path class="st3" d="M423.8,193.9c0.6-1.4,1-2.9,1.3-4.4c-0.3-1.5-0.7-3-1.3-4.4c1.4,0.6,2.9,1,4.4,1.3c1.5-0.3,3-0.7,4.4-1.3
					c-0.6,1.4-1,2.9-1.3,4.4c0.3,1.5,0.7,3,1.3,4.4c-1.4-0.6-2.9-1-4.4-1.3C426.6,192.9,425.2,193.3,423.8,193.9z"/>
				<path class="st3" d="M722.2,169.1c0.5-1.2,0.8-2.4,1.1-3.6c-0.2-1.3-0.6-2.5-1.1-3.6c2.2,1.4,5.1,1.4,7.3,0
					c-0.5,1.2-0.8,2.4-1.1,3.6c0.2,1.2,0.6,2.5,1.1,3.6C727.3,167.7,724.5,167.7,722.2,169.1z"/>
				<path class="st3" d="M539.7,94.2c0,0,1.8-4.5,1.8-6.1s-1.8-6.1-1.8-6.1s4.5,1.8,6.1,1.8s6.1-1.8,6.1-1.8s-1.8,4.5-1.8,6.1
					s1.8,6.1,1.8,6.1s-4.5-1.8-6.1-1.8S539.7,94.2,539.7,94.2z"/>
				<path class="st3" d="M246.5,407.2c0.5-1.2,0.8-2.4,1.1-3.6c-0.2-1.2-0.6-2.5-1.1-3.6c1.2,0.5,2.4,0.8,3.6,1.1
					c1.2-0.2,2.5-0.6,3.6-1.1c-0.5,1.2-0.8,2.4-1.1,3.6c0.2,1.2,0.6,2.5,1.1,3.6c-1.2-0.5-2.4-0.8-3.6-1.1
					C248.9,406.3,247.6,406.7,246.5,407.2z"/>
				<path class="st3" d="M63.9,332.3c0,0,1.8-4.5,1.8-6.1s-1.8-6.1-1.8-6.1s4.5,1.8,6.1,1.8s6.1-1.8,6.1-1.8s-1.8,4.5-1.8,6.1
					s1.8,6.1,1.8,6.1s-4.5-1.8-6.1-1.8S63.9,332.3,63.9,332.3z"/>

					<radialGradient id="SVGID_6_" cx="161.3" cy="272.3" r="224.6" gradientTransform="matrix(1 0 0 -1 0 500)" gradientUnits="userSpaceOnUse">
					<stop  offset="6.000000e-02" style="stop-color:#0A1656"/>
					<stop  offset="0.89" style="stop-color:#4478AF"/>
				</radialGradient>
				<path class="st4" d="M240.1,180c1.6,0,2.9-1.3,2.9-2.9c0-1.6-1.3-2.9-2.9-2.9c-1.6,0-2.9,1.3-2.9,2.9c0,0,0,0,0,0
					C237.2,178.7,238.5,180,240.1,180C240.1,180,240.1,180,240.1,180z"/>

					<radialGradient id="SVGID_7_" cx="161.3" cy="272.3" r="224.6" gradientTransform="matrix(1 0 0 -1 0 500)" gradientUnits="userSpaceOnUse">
					<stop  offset="6.000000e-02" style="stop-color:#0A1656"/>
					<stop  offset="0.89" style="stop-color:#4478AF"/>
				</radialGradient>
				<path class="st5" d="M193.4,22.6c0.3-0.7,0.6-1.3,1-1.9c0.6-0.4,1.2-0.7,1.9-1c-0.7-0.3-1.3-0.6-1.9-1c-0.4-0.6-0.7-1.2-1-1.9
					c-0.3,0.6-0.6,1.3-1,1.9c-0.6,0.4-1.2,0.7-1.9,1c0.7,0.3,1.3,0.6,1.9,1C192.8,21.3,193.1,22,193.4,22.6z"/>

					<radialGradient id="SVGID_8_" cx="161.3" cy="272.3" r="224.6" gradientTransform="matrix(1 0 0 -1 0 500)" gradientUnits="userSpaceOnUse">
					<stop  offset="6.000000e-02" style="stop-color:#0A1656"/>
					<stop  offset="0.89" style="stop-color:#4478AF"/>
				</radialGradient>
				<path class="st6" d="M272.4,77.6c0.3-0.7,0.6-1.3,1-1.8c0.6-0.4,1.2-0.7,1.9-1c-0.7-0.3-1.3-0.6-1.9-1c-0.4-0.6-0.7-1.2-1-1.8
					c-0.3,0.6-0.6,1.3-1,1.8c-0.6,0.4-1.2,0.7-1.9,1c0.7,0.3,1.3,0.6,1.9,1C271.8,76.3,272.1,76.9,272.4,77.6z"/>

					<radialGradient id="SVGID_9_" cx="161.3" cy="272.3" r="224.6" gradientTransform="matrix(1 0 0 -1 0 500)" gradientUnits="userSpaceOnUse">
					<stop  offset="6.000000e-02" style="stop-color:#0A1656"/>
					<stop  offset="0.89" style="stop-color:#4478AF"/>
				</radialGradient>
				<path class="st7" d="M233,116.6c0.3-0.6,0.6-1.3,1-1.8c0.6-0.4,1.2-0.7,1.9-1c-0.7-0.3-1.3-0.6-1.9-1c-0.4-0.6-0.7-1.2-1-1.8
					c-0.3,0.7-0.6,1.3-1,1.8c-0.6,0.4-1.2,0.7-1.9,1c0.7,0.3,1.3,0.6,1.9,1C232.4,115.3,232.7,116,233,116.6z"/>

					<radialGradient id="SVGID_10_" cx="161.3" cy="272.3" r="224.6" gradientTransform="matrix(1 0 0 -1 0 500)" gradientUnits="userSpaceOnUse">
					<stop  offset="6.000000e-02" style="stop-color:#0A1656"/>
					<stop  offset="0.89" style="stop-color:#4478AF"/>
				</radialGradient>
				<path class="st8" d="M54.5,204.1c0.3-0.7,0.6-1.3,1-1.9c0.6-0.4,1.2-0.7,1.8-1c-0.7-0.3-1.3-0.6-1.8-1c-0.4-0.6-0.7-1.2-1-1.9
					c-0.3,0.7-0.6,1.3-1,1.9c-0.6,0.4-1.2,0.7-1.8,1c0.7,0.3,1.3,0.6,1.8,1C53.9,202.8,54.3,203.4,54.5,204.1z"/>

					<radialGradient id="SVGID_11_" cx="161.3" cy="272.3" r="224.59" gradientTransform="matrix(1 0 0 -1 0 500)" gradientUnits="userSpaceOnUse">
					<stop  offset="6.000000e-02" style="stop-color:#0A1656"/>
					<stop  offset="0.89" style="stop-color:#4478AF"/>
				</radialGradient>
				<path class="st9" d="M87.7,74.7c0.3-0.6,0.6-1.3,1-1.8c0.6-0.4,1.2-0.7,1.8-1c-0.7-0.3-1.3-0.6-1.8-1c-0.4-0.6-0.7-1.2-1-1.8
					c-0.3,0.7-0.6,1.3-1,1.8c-0.6,0.4-1.2,0.7-1.8,1c0.7,0.3,1.3,0.6,1.8,1C87.1,73.5,87.5,74.1,87.7,74.7z"/>

					<radialGradient id="SVGID_12_" cx="66.59" cy="384.7111" r="17.6123" gradientTransform="matrix(1 0 0 -1 0 500)" gradientUnits="userSpaceOnUse">
					<stop  offset="6.000000e-02" style="stop-color:#0A1656"/>
					<stop  offset="0.89" style="stop-color:#4478AF"/>
				</radialGradient>
				<path class="st10" d="M70.7,117.2c0,0.6-0.4,1-1,1s-1-0.4-1-1s0.4-1,1-1S70.7,116.6,70.7,117.2z M78.3,99.7
					c-1.1,0-1.9,0.9-1.9,1.9s0.9,1.9,1.9,1.9s1.9-0.9,1.9-1.9S79.4,99.7,78.3,99.7z M82.2,122.6c-2.1,0-3.8,1.7-3.8,3.8
					c0,2.1,1.7,3.8,3.8,3.8c2.1,0,3.8-1.7,3.8-3.8C86,124.3,84.3,122.6,82.2,122.6C82.2,122.6,82.2,122.6,82.2,122.6z M49,127.1
					c-1.1,0-1.9,0.9-1.8,2c0,1.1,0.9,1.9,2,1.8c1,0,1.8-0.9,1.8-1.9c0-1-0.8-1.9-1.9-1.9C49.1,127.1,49,127.1,49,127.1z"/>

					<radialGradient id="SVGID_13_" cx="-375.7149" cy="401.7636" r="17.63" gradientTransform="matrix(-1 8.000000e-02 8.000000e-02 1 -162.8 -318.74)" gradientUnits="userSpaceOnUse">
					<stop  offset="6.000000e-02" style="stop-color:#0A1656"/>
					<stop  offset="0.89" style="stop-color:#4478AF"/>
				</radialGradient>
				<path class="st11" d="M238.1,48.7c-0.1-0.5,0.3-1,0.9-1.1c0.5-0.1,1,0.3,1.1,0.9c0.1,0.5-0.3,1-0.9,1.1c0,0-0.1,0-0.1,0
					C238.6,49.6,238.2,49.2,238.1,48.7z M232,66.8c1.1-0.1,1.8-1,1.7-2.1c-0.1-1.1-1-1.8-2.1-1.7c-1,0.1-1.8,1-1.7,2.1
					C230,66.2,230.9,66.9,232,66.8C232,66.8,232,66.8,232,66.8z M226.2,44.3c2.1-0.2,3.7-2,3.5-4.1c-0.2-2.1-2-3.7-4.1-3.5
					c-2.1,0.2-3.7,2-3.5,4.1c0,0,0,0,0,0C222.3,42.9,224.1,44.5,226.2,44.3L226.2,44.3z M258.9,37.1c1.1-0.1,1.8-1,1.7-2.1
					c-0.1-1.1-1-1.8-2.1-1.7c-1.1,0.1-1.8,1-1.7,2.1C256.9,36.3,257.8,37.1,258.9,37.1L258.9,37.1z"/>

					<radialGradient id="SVGID_14_" cx="606.86" cy="13.19" r="224.6" gradientTransform="matrix(1 0 0 -1 0 500)" gradientUnits="userSpaceOnUse">
					<stop  offset="6.000000e-02" style="stop-color:#0A1656"/>
					<stop  offset="0.89" style="stop-color:#4478AF"/>
				</radialGradient>
				<path class="st12" d="M685.7,439.1c1.6,0,2.9-1.3,2.9-2.9c0-1.6-1.3-2.9-2.9-2.9c-1.6,0-2.9,1.3-2.9,2.9c0,0,0,0,0,0
					C682.8,437.8,684.1,439.1,685.7,439.1z"/>

					<radialGradient id="SVGID_15_" cx="606.86" cy="13.19" r="224.6" gradientTransform="matrix(1 0 0 -1 0 500)" gradientUnits="userSpaceOnUse">
					<stop  offset="6.000000e-02" style="stop-color:#0A1656"/>
					<stop  offset="0.89" style="stop-color:#4478AF"/>
				</radialGradient>
				<path class="st13" d="M638.9,281.7c0.3-0.6,0.6-1.3,1-1.8c0.6-0.4,1.2-0.7,1.8-1c-0.7-0.3-1.3-0.6-1.8-1c-0.4-0.6-0.7-1.2-1-1.9
					c-0.3,0.7-0.6,1.3-1,1.9c-0.6,0.4-1.2,0.7-1.8,1C637.5,279.2,638.6,280.3,638.9,281.7L638.9,281.7z"/>

					<radialGradient id="SVGID_16_" cx="606.86" cy="13.19" r="224.6" gradientTransform="matrix(1 0 0 -1 0 500)" gradientUnits="userSpaceOnUse">
					<stop  offset="6.000000e-02" style="stop-color:#0A1656"/>
					<stop  offset="0.89" style="stop-color:#4478AF"/>
				</radialGradient>
				<path class="st14" d="M717.9,336.7c0.3-0.7,0.6-1.3,1-1.9c0.6-0.4,1.2-0.7,1.8-1c-0.6-0.3-1.3-0.6-1.8-1c-0.4-0.6-0.7-1.2-1-1.9
					c-0.3,0.7-0.6,1.3-1,1.9c-0.6,0.4-1.2,0.7-1.8,1C716.5,334.1,717.6,335.3,717.9,336.7L717.9,336.7z"/>

					<radialGradient id="SVGID_17_" cx="606.86" cy="13.19" r="224.6" gradientTransform="matrix(1 0 0 -1 0 500)" gradientUnits="userSpaceOnUse">
					<stop  offset="6.000000e-02" style="stop-color:#0A1656"/>
					<stop  offset="0.89" style="stop-color:#4478AF"/>
				</radialGradient>
				<path class="st15" d="M678.6,375.7c0.3-0.7,0.6-1.3,1-1.9c0.6-0.4,1.2-0.7,1.8-1c-0.6-0.3-1.3-0.6-1.8-1c-0.4-0.6-0.7-1.2-1-1.9
					c-0.3,0.7-0.6,1.3-1,1.9c-0.6,0.4-1.2,0.7-1.8,1c0.6,0.3,1.3,0.6,1.8,1C678,374.5,678.3,375.1,678.6,375.7z"/>

					<radialGradient id="SVGID_18_" cx="606.86" cy="13.19" r="224.6" gradientTransform="matrix(1 0 0 -1 0 500)" gradientUnits="userSpaceOnUse">
					<stop  offset="6.000000e-02" style="stop-color:#0A1656"/>
					<stop  offset="0.89" style="stop-color:#4478AF"/>
				</radialGradient>
				<path class="st16" d="M500.1,463.2c0.3-1.4,1.4-2.5,2.9-2.9c-0.7-0.3-1.3-0.6-1.9-1c-0.4-0.6-0.7-1.2-1-1.9
					c-0.3,1.4-1.4,2.5-2.9,2.9c0.6,0.3,1.3,0.6,1.9,1C499.5,461.9,499.9,462.5,500.1,463.2z"/>

					<radialGradient id="SVGID_19_" cx="606.86" cy="13.18" r="224.6" gradientTransform="matrix(1 0 0 -1 0 500)" gradientUnits="userSpaceOnUse">
					<stop  offset="6.000000e-02" style="stop-color:#0A1656"/>
					<stop  offset="0.89" style="stop-color:#4478AF"/>
				</radialGradient>
				<path class="st17" d="M533.3,333.8c0.3-0.7,0.6-1.3,1-1.9c0.6-0.4,1.2-0.7,1.8-1c-0.6-0.3-1.3-0.6-1.8-1c-0.4-0.6-0.7-1.2-1-1.9
					c-0.3,0.7-0.6,1.3-1,1.9c-0.6,0.4-1.2,0.7-1.8,1c0.6,0.3,1.3,0.6,1.8,1C532.7,332.6,533,333.2,533.3,333.8z"/>

					<radialGradient id="SVGID_20_" cx="512.1201" cy="125.585" r="17.6315" gradientTransform="matrix(1 0 0 -1 0 500)" gradientUnits="userSpaceOnUse">
					<stop  offset="6.000000e-02" style="stop-color:#0A1656"/>
					<stop  offset="0.89" style="stop-color:#4478AF"/>
				</radialGradient>
				<path class="st18" d="M516.3,376.3c0,0.6-0.4,1-1,1s-1-0.4-1-1s0.4-1,1-1S516.3,375.8,516.3,376.3z M523.9,358.8
					c-1.1,0-1.9,0.9-1.9,1.9c0,1.1,0.9,1.9,1.9,1.9c1.1,0,1.9-0.9,1.9-1.9C525.8,359.7,525,358.8,523.9,358.8
					C523.9,358.8,523.9,358.8,523.9,358.8L523.9,358.8z M527.7,381.7c-2.1,0-3.8,1.7-3.8,3.8c0,2.1,1.7,3.8,3.8,3.8
					c2.1,0,3.8-1.7,3.8-3.8c0,0,0,0,0,0C531.6,383.4,529.9,381.7,527.7,381.7L527.7,381.7z M494.6,386.2c-1.1,0-1.9,0.8-1.9,1.9
					c0,1.1,0.8,1.9,1.9,1.9c1.1,0,1.9-0.8,1.9-1.9c0,0,0,0,0,0C496.5,387,495.7,386.2,494.6,386.2L494.6,386.2z"/>

					<radialGradient id="SVGID_21_" cx="-797.705" cy="697.7336" r="17.63" gradientTransform="matrix(-1 8.000000e-02 8.000000e-02 1 -162.8 -318.74)" gradientUnits="userSpaceOnUse">
					<stop  offset="6.000000e-02" style="stop-color:#0A1656"/>
					<stop  offset="0.89" style="stop-color:#4478AF"/>
				</radialGradient>
				<path class="st19" d="M683.7,307.9c-0.1-0.5,0.3-1,0.9-1.1s1,0.3,1.1,0.9c0.1,0.5-0.3,1-0.9,1.1c0,0-0.1,0-0.1,0
					C684.2,308.7,683.7,308.4,683.7,307.9z M677.5,326c1.1-0.1,1.8-1,1.7-2.1c-0.1-1.1-1-1.8-2.1-1.7c-1,0.1-1.8,1-1.7,2.1
					C675.5,325.3,676.5,326.1,677.5,326C677.5,326,677.5,326,677.5,326z M671.8,303.5c2.1-0.2,3.7-2,3.5-4.1c-0.2-2.1-2-3.7-4.1-3.5
					c-2.1,0.2-3.6,2-3.5,4.1C667.8,302.1,669.7,303.6,671.8,303.5L671.8,303.5z M704.4,296.2c1.1-0.1,1.8-1,1.7-2.1
					c-0.1-1.1-1-1.8-2.1-1.7c-1,0.1-1.8,1-1.7,2.1C702.5,295.5,703.4,296.3,704.4,296.2L704.4,296.2z"/>

					<radialGradient id="SVGID_22_" cx="382.87" cy="44.28" r="162.97" gradientTransform="matrix(1 0 0 -1 0 500)" gradientUnits="userSpaceOnUse">
					<stop  offset="6.000000e-02" style="stop-color:#0A1656"/>
					<stop  offset="0.89" style="stop-color:#4478AF"/>
				</radialGradient>
				<path class="st20" d="M440,421.1c1.2,0,2.1-0.8,2.2-2c0-1.2-0.8-2.1-2-2.2c-1.2,0-2.1,0.8-2.2,2c0,0,0,0,0,0.1
					C438,420.1,438.9,421.1,440,421.1z"/>

					<radialGradient id="SVGID_23_" cx="382.87" cy="44.28" r="162.97" gradientTransform="matrix(1 0 0 -1 0 500)" gradientUnits="userSpaceOnUse">
					<stop  offset="6.000000e-02" style="stop-color:#0A1656"/>
					<stop  offset="0.89" style="stop-color:#4478AF"/>
				</radialGradient>
				<path class="st21" d="M406.1,306.9c0.2-0.5,0.4-0.9,0.7-1.3c0.4-0.3,0.9-0.5,1.3-0.7c-1-0.2-1.8-1-2.1-2.1c-0.2,1-1,1.9-2.1,2.1
					c0.5,0.2,0.9,0.4,1.4,0.7C405.7,306,405.9,306.4,406.1,306.9z"/>

					<radialGradient id="SVGID_24_" cx="382.87" cy="44.28" r="162.97" gradientTransform="matrix(1 0 0 -1 0 500)" gradientUnits="userSpaceOnUse">
					<stop  offset="6.000000e-02" style="stop-color:#0A1656"/>
					<stop  offset="0.89" style="stop-color:#4478AF"/>
				</radialGradient>
				<path class="st22" d="M463.5,346.8c0.2-1,1-1.8,2.1-2.1c-0.5-0.2-0.9-0.4-1.3-0.7c-0.3-0.4-0.5-0.9-0.7-1.3
					c-0.2,1-1,1.8-2.1,2.1c0.5,0.2,0.9,0.4,1.3,0.7C463,345.9,463.3,346.3,463.5,346.8z"/>

					<radialGradient id="SVGID_25_" cx="382.87" cy="44.28" r="162.97" gradientTransform="matrix(1 0 0 -1 0 500)" gradientUnits="userSpaceOnUse">
					<stop  offset="6.000000e-02" style="stop-color:#0A1656"/>
					<stop  offset="0.89" style="stop-color:#4478AF"/>
				</radialGradient>
				<path class="st23" d="M434.9,375.1c0.2-1.1,1.1-1.9,2.1-2.1c-0.5-0.2-0.9-0.4-1.3-0.7c-0.3-0.4-0.5-0.9-0.7-1.3
					c-0.2,1-1,1.8-2.1,2.1c0.5,0.2,0.9,0.4,1.3,0.7C434.5,374.2,434.7,374.6,434.9,375.1z"/>

					<radialGradient id="SVGID_26_" cx="382.87" cy="44.28" r="162.96" gradientTransform="matrix(1 0 0 -1 0 500)" gradientUnits="userSpaceOnUse">
					<stop  offset="6.000000e-02" style="stop-color:#0A1656"/>
					<stop  offset="0.89" style="stop-color:#4478AF"/>
				</radialGradient>
				<path class="st24" d="M305.4,438.6c0.2-0.5,0.4-0.9,0.7-1.3c0.4-0.3,0.9-0.5,1.3-0.7c-1-0.2-1.8-1-2.1-2.1
					c-0.2,0.5-0.4,0.9-0.7,1.3c-0.4,0.3-0.9,0.5-1.3,0.7C304.4,436.7,305.2,437.5,305.4,438.6z"/>

					<radialGradient id="SVGID_27_" cx="382.87" cy="44.28" r="162.97" gradientTransform="matrix(1 0 0 -1 0 500)" gradientUnits="userSpaceOnUse">
					<stop  offset="6.000000e-02" style="stop-color:#0A1656"/>
					<stop  offset="0.89" style="stop-color:#4478AF"/>
				</radialGradient>
				<path class="st25" d="M329.5,344.7c0.2-1,1-1.8,2.1-2.1c-1-0.2-1.9-1-2.1-2.1c-0.2,1-1,1.9-2.1,2.1
					C328.4,342.9,329.3,343.7,329.5,344.7z"/>

					<radialGradient id="SVGID_28_" cx="314.145" cy="125.84" r="12.7819" gradientTransform="matrix(1 0 0 -1 0 500)" gradientUnits="userSpaceOnUse">
					<stop  offset="6.000000e-02" style="stop-color:#0A1656"/>
					<stop  offset="0.89" style="stop-color:#4478AF"/>
				</radialGradient>
				<path class="st26" d="M317.1,375.5c0,0.4-0.3,0.7-0.7,0.7s-0.7-0.3-0.7-0.7s0.3-0.7,0.7-0.7S317.1,375.2,317.1,375.5
					L317.1,375.5z M322.7,362.8c-0.8,0-1.4,0.6-1.4,1.4s0.6,1.4,1.4,1.4s1.4-0.6,1.4-1.4C324.1,363.5,323.4,362.8,322.7,362.8
					C322.7,362.8,322.7,362.8,322.7,362.8L322.7,362.8z M325.4,379.5c-1.5,0-2.8,1.2-2.8,2.8s1.2,2.8,2.8,2.8s2.8-1.2,2.8-2.8l0,0
					C328.2,380.7,327,379.5,325.4,379.5L325.4,379.5z M301.4,382.7c-0.8,0-1.4,0.6-1.4,1.4s0.6,1.4,1.4,1.4s1.4-0.6,1.4-1.4
					C302.8,383.3,302.2,382.7,301.4,382.7C301.5,382.7,301.4,382.7,301.4,382.7L301.4,382.7z"/>

					<radialGradient id="SVGID_29_" cx="-550.8549" cy="694.3836" r="12.79" gradientTransform="matrix(-1 8.000000e-02 8.000000e-02 1 -162.8 -318.74)" gradientUnits="userSpaceOnUse">
					<stop  offset="6.000000e-02" style="stop-color:#0A1656"/>
					<stop  offset="0.89" style="stop-color:#4478AF"/>
				</radialGradient>
				<path class="st27" d="M438.6,325.9c0-0.4,0.3-0.7,0.6-0.7c0.4,0,0.7,0.3,0.7,0.6c0,0.4-0.2,0.7-0.6,0.7
					C439,326.5,438.6,326.3,438.6,325.9C438.6,325.9,438.6,325.9,438.6,325.9z M434.1,339c0.8-0.1,1.3-0.7,1.2-1.5
					c-0.1-0.8-0.7-1.3-1.5-1.2c-0.8,0.1-1.3,0.7-1.3,1.5C432.7,338.5,433.4,339.1,434.1,339C434.1,339,434.1,339,434.1,339z
					 M430,322.7c1.5-0.1,2.7-1.5,2.5-3c-0.1-1.5-1.5-2.7-3-2.5c-1.5,0.1-2.6,1.5-2.5,3C427.1,321.7,428.5,322.8,430,322.7z
					 M453.7,317.4c0.8-0.1,1.3-0.7,1.3-1.5s-0.7-1.3-1.5-1.3s-1.3,0.7-1.3,1.5c0,0,0,0,0,0C452.2,316.9,452.9,317.4,453.7,317.4
					L453.7,317.4z"/>

					<radialGradient id="SVGID_30_" cx="615.0483" cy="402.3983" r="162.97" gradientTransform="matrix(-0.7071 -0.7071 -0.7071 0.7071 1163.0818 206.615)" gradientUnits="userSpaceOnUse">
					<stop  offset="6.000000e-02" style="stop-color:#0A1656"/>
					<stop  offset="0.89" style="stop-color:#4478AF"/>
				</radialGradient>
				<path class="st28" d="M378.7,40.3c-0.8-0.8-2.1-0.8-2.9,0c-0.8,0.8-0.8,2.1,0,2.9s2.1,0.8,2.9,0c0,0,0,0,0,0
					C379.6,42.4,379.6,41.1,378.7,40.3z"/>

					<radialGradient id="SVGID_31_" cx="615.0483" cy="402.3983" r="162.97" gradientTransform="matrix(-0.7071 -0.7071 -0.7071 0.7071 1163.0818 206.615)" gradientUnits="userSpaceOnUse">
					<stop  offset="6.000000e-02" style="stop-color:#0A1656"/>
					<stop  offset="0.89" style="stop-color:#4478AF"/>
				</radialGradient>
				<path class="st29" d="M322,145c-0.9,0.6-2,0.6-2.9,0c0.2,0.5,0.3,1,0.4,1.5c-0.1,0.5-0.3,1-0.5,1.5c0.9-0.6,2-0.6,2.9,0
					c-0.2-0.5-0.3-1-0.4-1.5C321.6,146,321.8,145.5,322,145z"/>

					<radialGradient id="SVGID_32_" cx="615.0483" cy="402.3983" r="162.97" gradientTransform="matrix(-0.7071 -0.7071 -0.7071 0.7071 1163.0818 206.615)" gradientUnits="userSpaceOnUse">
					<stop  offset="6.000000e-02" style="stop-color:#0A1656"/>
					<stop  offset="0.89" style="stop-color:#4478AF"/>
				</radialGradient>
				<path class="st30" d="M309.6,76.3c-0.9,0.6-2,0.6-2.9,0c0.2,0.5,0.3,1,0.4,1.5c-0.1,0.5-0.2,1-0.4,1.5c0.9-0.6,2-0.6,2.9,0
					c-0.2-0.5-0.3-1-0.4-1.5C309.3,77.3,309.4,76.8,309.6,76.3z"/>

					<radialGradient id="SVGID_33_" cx="615.0483" cy="402.3983" r="162.97" gradientTransform="matrix(-0.7071 -0.7071 -0.7071 0.7071 1163.0818 206.615)" gradientUnits="userSpaceOnUse">
					<stop  offset="6.000000e-02" style="stop-color:#0A1656"/>
					<stop  offset="0.89" style="stop-color:#4478AF"/>
				</radialGradient>
				<path class="st31" d="M349.9,76.5c-0.9,0.6-2,0.6-2.9,0c0.2,0.5,0.3,1,0.4,1.5c-0.1,0.5-0.2,1-0.4,1.5c0.9-0.6,2-0.6,2.9,0
					c-0.2-0.5-0.3-1-0.4-1.5C349.5,77.4,349.7,76.9,349.9,76.5z"/>

					<radialGradient id="SVGID_34_" cx="615.0583" cy="402.3983" r="162.97" gradientTransform="matrix(-0.7071 -0.7071 -0.7071 0.7071 1163.0818 206.615)" gradientUnits="userSpaceOnUse">
					<stop  offset="6.000000e-02" style="stop-color:#0A1656"/>
					<stop  offset="0.89" style="stop-color:#4478AF"/>
				</radialGradient>
				<path class="st32" d="M486.3,123.2c-0.9,0.6-2,0.6-2.9,0c0.2,0.5,0.3,1,0.4,1.5c-0.1,0.5-0.2,1-0.4,1.5c0.9-0.6,2-0.6,2.9,0
					c-0.2-0.5-0.3-1-0.4-1.5C485.9,124.1,486.1,123.6,486.3,123.2z"/>

					<radialGradient id="SVGID_35_" cx="615.0483" cy="402.3983" r="162.97" gradientTransform="matrix(-0.7071 -0.7071 -0.7071 0.7071 1163.0818 206.615)" gradientUnits="userSpaceOnUse">
					<stop  offset="6.000000e-02" style="stop-color:#0A1656"/>
					<stop  offset="0.89" style="stop-color:#4478AF"/>
				</radialGradient>
				<path class="st33" d="M402.9,172.5c-0.9,0.6-2,0.6-2.9,0c0.2,0.5,0.3,1,0.4,1.5c-0.1,0.5-0.2,1-0.4,1.5c0.9-0.6,2-0.6,2.9,0
					c-0.2-0.5-0.3-1-0.4-1.5C402.6,173.5,402.7,173,402.9,172.5z"/>

					<radialGradient id="SVGID_36_" cx="546.2978" cy="483.9684" r="12.7928" gradientTransform="matrix(-0.7071 -0.7071 -0.7071 0.7071 1163.0818 206.615)" gradientUnits="userSpaceOnUse">
					<stop  offset="6.000000e-02" style="stop-color:#0A1656"/>
					<stop  offset="0.89" style="stop-color:#4478AF"/>
				</radialGradient>
				<path class="st34" d="M433.4,159.4c0.3-0.3,0.7-0.3,1,0c0.3,0.3,0.3,0.7,0,1c-0.3,0.3-0.7,0.3-1,0
					C433.1,160.2,433.1,159.7,433.4,159.4C433.4,159.4,433.4,159.4,433.4,159.4z M420.5,164.5c0.5,0.6,1.4,0.6,1.9,0.1
					c0,0,0,0,0.1-0.1c0.5-0.6,0.5-1.4,0-2s-1.4-0.5-2,0C420,163.1,420,164,420.5,164.5z M430.3,150.8c1.1,1.1,2.8,1.1,3.9,0
					s1.1-2.8,0-3.9c-1.1-1.1-2.8-1.1-3.9,0C429.2,147.9,429.2,149.7,430.3,150.8C430.3,150.7,430.3,150.8,430.3,150.8z M449.6,165.5
					c0.6,0.6,1.4,0.6,2,0s0.6-1.4,0-2s-1.4-0.6-2,0S449,164.9,449.6,165.5z"/>

					<radialGradient id="SVGID_37_" cx="673.1163" cy="531.2933" r="13.1335" gradientTransform="matrix(-0.7071 -0.7071 -0.7071 0.7071 1163.0818 206.615)" gradientUnits="userSpaceOnUse">
					<stop  offset="6.000000e-02" style="stop-color:#0A1656"/>
					<stop  offset="0.89" style="stop-color:#4478AF"/>
				</radialGradient>
				<path class="st35" d="M312.4,108.7c-0.2,0.3-0.7,0.3-1,0.1c0,0,0,0,0,0c-0.3-0.2-0.3-0.7-0.1-1c0,0,0,0,0,0
					c0.2-0.3,0.7-0.3,1-0.1C312.6,107.9,312.6,108.3,312.4,108.7L312.4,108.7L312.4,108.7z M324.9,102.5c-0.6-0.5-1.5-0.4-2,0.2
					c-0.5,0.6-0.4,1.5,0.2,2c0.6,0.5,1.4,0.4,1.9-0.2C325.5,104,325.5,103.1,324.9,102.5C324.9,102.6,324.9,102.5,324.9,102.5z
					 M316.2,117c-1.2-1-2.9-0.8-3.9,0.3c-1,1.2-0.8,2.9,0.3,3.9c1.2,1,2.9,0.8,3.9-0.3C317.6,119.7,317.4,118,316.2,117
					C316.2,117,316.2,117,316.2,117z M295.8,104c-0.6-0.5-1.5-0.4-1.9,0.2c-0.5,0.6-0.4,1.5,0.2,1.9c0.6,0.5,1.4,0.4,1.9-0.2
					C296.4,105.4,296.4,104.6,295.8,104C295.8,104,295.8,104,295.8,104z"/>

					<radialGradient id="SVGID_38_" cx="777.3184" cy="334.5683" r="224.6" gradientTransform="matrix(-0.7071 -0.7071 -0.7071 0.7071 1497.0117 375.785)" gradientUnits="userSpaceOnUse">
					<stop  offset="6.000000e-02" style="stop-color:#0A1656"/>
					<stop  offset="0.89" style="stop-color:#4478AF"/>
				</radialGradient>
				<path class="st36" d="M621.3,40.7c-1.1-1.1-2.9-1.1-4.1,0s-1.1,2.9,0,4.1c1.1,1.1,2.9,1.1,4.1,0
					C622.5,43.7,622.5,41.9,621.3,40.7C621.4,40.8,621.4,40.7,621.3,40.7z"/>

					<radialGradient id="SVGID_39_" cx="777.3184" cy="334.5683" r="224.6" gradientTransform="matrix(-0.7071 -0.7071 -0.7071 0.7071 1497.0117 375.785)" gradientUnits="userSpaceOnUse">
					<stop  offset="6.000000e-02" style="stop-color:#0A1656"/>
					<stop  offset="0.89" style="stop-color:#4478AF"/>
				</radialGradient>
				<path class="st37" d="M543.1,185.1c-1.2,0.8-2.8,0.8-4,0c0.3,0.6,0.5,1.3,0.6,2c-0.1,0.7-0.3,1.4-0.6,2c1.2-0.8,2.8-0.8,4,0
					c-0.3-0.6-0.5-1.3-0.6-2C542.6,186.4,542.8,185.7,543.1,185.1z"/>

					<radialGradient id="SVGID_40_" cx="777.3184" cy="334.5683" r="224.6" gradientTransform="matrix(-0.7071 -0.7071 -0.7071 0.7071 1497.0117 375.785)" gradientUnits="userSpaceOnUse">
					<stop  offset="6.000000e-02" style="stop-color:#0A1656"/>
					<stop  offset="0.89" style="stop-color:#4478AF"/>
				</radialGradient>
				<path class="st38" d="M526.1,90.3c-0.6,0.3-1.3,0.5-2,0.6c-0.7-0.1-1.4-0.3-2-0.6c0.3,0.6,0.5,1.3,0.6,2c-0.1,0.7-0.3,1.4-0.6,2
					c0.6-0.3,1.3-0.5,2-0.6c0.7,0.1,1.4,0.3,2,0.6c-0.3-0.6-0.5-1.3-0.6-2C525.6,91.7,525.8,91,526.1,90.3z"/>

					<radialGradient id="SVGID_41_" cx="777.3184" cy="334.5683" r="224.6" gradientTransform="matrix(-0.7071 -0.7071 -0.7071 0.7071 1497.0117 375.785)" gradientUnits="userSpaceOnUse">
					<stop  offset="6.000000e-02" style="stop-color:#0A1656"/>
					<stop  offset="0.89" style="stop-color:#4478AF"/>
				</radialGradient>
				<path class="st39" d="M581.5,90.6c-0.6,0.3-1.3,0.5-2,0.6c-0.7-0.1-1.4-0.3-2-0.6c0.3,0.6,0.5,1.3,0.6,2c-0.1,0.7-0.3,1.4-0.6,2
					c0.6-0.3,1.3-0.5,2-0.6c0.7,0.1,1.4,0.3,2,0.6c-0.3-0.6-0.5-1.3-0.6-2C581.1,91.9,581.3,91.2,581.5,90.6z"/>

					<radialGradient id="SVGID_42_" cx="777.3184" cy="334.5683" r="224.6" gradientTransform="matrix(-0.7071 -0.7071 -0.7071 0.7071 1497.0117 375.785)" gradientUnits="userSpaceOnUse">
					<stop  offset="6.000000e-02" style="stop-color:#0A1656"/>
					<stop  offset="0.89" style="stop-color:#4478AF"/>
				</radialGradient>
				<path class="st40" d="M654.7,222.9c-1.2,0.8-2.8,0.8-4,0c0.3,0.6,0.5,1.3,0.6,2c-0.1,0.7-0.3,1.4-0.6,2c1.2-0.8,2.8-0.8,4,0
					c-0.3-0.6-0.5-1.3-0.6-2C654.2,224.2,654.4,223.6,654.7,222.9z"/>

					<radialGradient id="SVGID_43_" cx="682.5776" cy="446.9874" r="17.6319" gradientTransform="matrix(-0.7071 -0.7071 -0.7071 0.7071 1497.0117 375.785)" gradientUnits="userSpaceOnUse">
					<stop  offset="6.000000e-02" style="stop-color:#0A1656"/>
					<stop  offset="0.89" style="stop-color:#4478AF"/>
				</radialGradient>
				<path class="st41" d="M696.7,204.9c0.4-0.3,1-0.3,1.3,0c0.4,0.4,0.4,1,0,1.4c-0.3,0.5-0.9,0.7-1.4,0.4c-0.5-0.3-0.7-0.9-0.4-1.4
					C696.4,205.1,696.5,205,696.7,204.9z M678.9,211.9c0.7,0.7,2,0.7,2.7,0c0.7-0.7,0.7-2,0-2.7c-0.7-0.7-2-0.7-2.7,0c0,0,0,0,0,0
					C678.2,209.9,678.2,211.1,678.9,211.9L678.9,211.9z M692.4,193c1.5,1.5,3.9,1.5,5.4,0c1.5-1.5,1.5-3.9,0-5.4
					c-1.5-1.5-3.9-1.5-5.4,0C690.9,189.1,690.9,191.5,692.4,193C692.4,193,692.4,193,692.4,193z M719,213.2c0.7,0.7,2,0.7,2.7,0
					c0.7-0.7,0.7-2,0-2.7c-0.7-0.7-2-0.7-2.7,0c0,0,0,0,0,0C718.3,211.3,718.2,212.5,719,213.2C719,213.2,719,213.2,719,213.2z"/>

					<radialGradient id="SVGID_44_" cx="857.3336" cy="512.2188" r="18.084" gradientTransform="matrix(-0.7071 -0.7071 -0.7071 0.7071 1497.0117 375.785)" gradientUnits="userSpaceOnUse">
					<stop  offset="6.000000e-02" style="stop-color:#0A1656"/>
					<stop  offset="0.89" style="stop-color:#4478AF"/>
				</radialGradient>
				<path class="st42" d="M529.9,135c-0.3,0.4-1,0.5-1.4,0.2c-0.4-0.3-0.5-1-0.2-1.4c0.3-0.4,1-0.5,1.4-0.2c0,0,0,0,0.1,0.1
					C530.2,134,530.3,134.6,529.9,135C529.9,135,529.9,135,529.9,135z M547.1,126.5c-0.8-0.7-2-0.6-2.7,0.2s-0.6,2,0.2,2.7
					s2,0.6,2.7-0.2c0,0,0,0,0,0C548,128.4,547.9,127.2,547.1,126.5C547.1,126.5,547.1,126.5,547.1,126.5L547.1,126.5z M535.2,146.5
					c-1.6-1.4-4-1.2-5.4,0.5c-1.4,1.6-1.2,4,0.5,5.4s4,1.2,5.4-0.5c0,0,0,0,0,0C537,150.3,536.9,147.9,535.2,146.5
					C535.3,146.5,535.2,146.5,535.2,146.5L535.2,146.5z M507,128.5c-0.8-0.7-2-0.6-2.7,0.2c-0.7,0.8-0.6,2,0.2,2.7s2,0.6,2.7-0.2
					c0,0,0,0,0,0C507.9,130.4,507.8,129.2,507,128.5C507,128.5,507,128.5,507,128.5L507,128.5z"/>

					<radialGradient id="SVGID_45_" cx="945.3984" cy="839.3383" r="224.6" gradientTransform="matrix(-0.7071 -0.7071 -0.7071 0.7071 1497.0117 375.785)" gradientUnits="userSpaceOnUse">
					<stop  offset="6.000000e-02" style="stop-color:#0A1656"/>
					<stop  offset="0.89" style="stop-color:#4478AF"/>
				</radialGradient>
				<path class="st43" d="M145.6,278.8c-1.1-1.1-2.9-1.1-4.1,0c-1.1,1.1-1.1,2.9,0,4.1c1.1,1.1,2.9,1.1,4.1,0
					C146.7,281.8,146.7,279.9,145.6,278.8C145.6,278.8,145.6,278.8,145.6,278.8z"/>

					<radialGradient id="SVGID_46_" cx="945.3984" cy="839.3383" r="224.6" gradientTransform="matrix(-0.7071 -0.7071 -0.7071 0.7071 1497.0117 375.785)" gradientUnits="userSpaceOnUse">
					<stop  offset="6.000000e-02" style="stop-color:#0A1656"/>
					<stop  offset="0.89" style="stop-color:#4478AF"/>
				</radialGradient>
				<path class="st44" d="M67.3,423.1c-0.6,0.3-1.3,0.5-2,0.6c-0.7-0.1-1.4-0.3-2-0.6c0.3,0.6,0.5,1.3,0.6,2c-0.1,0.7-0.3,1.4-0.6,2
					c0.6-0.3,1.3-0.5,2-0.6c0.7,0.1,1.4,0.3,2,0.6c-0.3-0.6-0.5-1.3-0.6-2C66.8,424.5,67,423.8,67.3,423.1z"/>

					<radialGradient id="SVGID_47_" cx="945.3984" cy="839.3383" r="224.6" gradientTransform="matrix(-0.7071 -0.7071 -0.7071 0.7071 1497.0117 375.785)" gradientUnits="userSpaceOnUse">
					<stop  offset="6.000000e-02" style="stop-color:#0A1656"/>
					<stop  offset="0.89" style="stop-color:#4478AF"/>
				</radialGradient>
				<path class="st45" d="M50.3,328.4c-0.6,0.3-1.3,0.5-2,0.6c-0.7-0.1-1.4-0.3-2-0.6c0.3,0.6,0.5,1.3,0.6,2c-0.1,0.7-0.3,1.4-0.6,2
					c0.6-0.3,1.3-0.5,2-0.6c0.7,0.1,1.4,0.3,2,0.6c-0.3-0.6-0.5-1.3-0.6-2C49.8,329.7,50,329.1,50.3,328.4z"/>

					<radialGradient id="SVGID_48_" cx="945.3984" cy="839.3383" r="224.6" gradientTransform="matrix(-0.7071 -0.7071 -0.7071 0.7071 1497.0117 375.785)" gradientUnits="userSpaceOnUse">
					<stop  offset="6.000000e-02" style="stop-color:#0A1656"/>
					<stop  offset="0.89" style="stop-color:#4478AF"/>
				</radialGradient>
				<path class="st46" d="M105.8,328.6c-0.6,0.3-1.3,0.5-2,0.6c-0.7-0.1-1.4-0.3-2-0.6c0.3,0.6,0.5,1.3,0.6,2
					c-0.1,0.7-0.3,1.4-0.6,2c0.6-0.3,1.3-0.5,2-0.6c0.7,0.1,1.4,0.3,2,0.6c-0.3-0.6-0.5-1.3-0.6-2
					C105.3,330,105.5,329.3,105.8,328.6z"/>

					<radialGradient id="SVGID_49_" cx="945.3984" cy="839.3383" r="224.6" gradientTransform="matrix(-0.7071 -0.7071 -0.7071 0.7071 1497.0117 375.785)" gradientUnits="userSpaceOnUse">
					<stop  offset="6.000000e-02" style="stop-color:#0A1656"/>
					<stop  offset="0.89" style="stop-color:#4478AF"/>
				</radialGradient>
				<path class="st47" d="M293.8,393c-0.6,0.3-1.3,0.5-2,0.6c-0.7-0.1-1.4-0.3-2-0.6c0.3,0.6,0.5,1.3,0.6,2c-0.1,0.7-0.3,1.4-0.6,2
					c0.6-0.3,1.3-0.5,2-0.6c0.7,0.1,1.4,0.3,2,0.6c-0.3-0.6-0.5-1.3-0.6-2C293.3,394.3,293.5,393.6,293.8,393z"/>

					<radialGradient id="SVGID_50_" cx="945.3984" cy="839.3383" r="224.6" gradientTransform="matrix(-0.7071 -0.7071 -0.7071 0.7071 1497.0117 375.785)" gradientUnits="userSpaceOnUse">
					<stop  offset="6.000000e-02" style="stop-color:#0A1656"/>
					<stop  offset="0.89" style="stop-color:#4478AF"/>
				</radialGradient>
				<path class="st48" d="M178.9,461c-0.6,0.3-1.3,0.5-2,0.6c-0.7-0.1-1.4-0.3-2-0.6c0.3,0.6,0.5,1.3,0.6,2c-0.1,0.7-0.3,1.4-0.6,2
					c0.6-0.3,1.3-0.5,2-0.6c0.7,0.1,1.4,0.3,2,0.6c-0.3-0.6-0.5-1.3-0.6-2C178.4,462.3,178.6,461.6,178.9,461z"/>

					<radialGradient id="SVGID_51_" cx="850.6407" cy="951.7697" r="17.6243" gradientTransform="matrix(-0.7071 -0.7071 -0.7071 0.7071 1497.0117 375.785)" gradientUnits="userSpaceOnUse">
					<stop  offset="6.000000e-02" style="stop-color:#0A1656"/>
					<stop  offset="0.89" style="stop-color:#4478AF"/>
				</radialGradient>
				<path class="st49" d="M220.9,443c0.3-0.5,0.9-0.7,1.4-0.4c0.5,0.3,0.7,0.9,0.4,1.4c-0.1,0.2-0.2,0.3-0.4,0.4
					c-0.5,0.3-1.1,0.1-1.4-0.4C220.8,443.6,220.8,443.3,220.9,443z M203.1,450c0.7,0.7,2,0.7,2.7,0c0.7-0.7,0.7-2,0-2.7
					s-2-0.7-2.7,0c0,0,0,0,0,0C202.4,448,202.4,449.2,203.1,450C203.1,450,203.1,450,203.1,450z M216.7,431.1c1.5,1.5,3.9,1.5,5.4,0
					s1.5-3.9,0-5.4s-3.9-1.5-5.4,0c0,0,0,0,0,0c-1.5,1.4-1.7,3.7-0.3,5.3C216.4,431,216.5,431.1,216.7,431.1L216.7,431.1z
					 M243.2,451.3c0.7,0.7,2,0.7,2.7,0c0.7-0.7,0.7-2,0-2.7s-2-0.7-2.7,0c0,0,0,0,0,0c-1.1,0-2,0.2-2,1.3
					C241.2,451.1,242.1,452,243.2,451.3L243.2,451.3z"/>

					<radialGradient id="SVGID_52_" cx="1025.4227" cy="1016.9741" r="18.0868" gradientTransform="matrix(-0.7071 -0.7071 -0.7071 0.7071 1497.0117 375.785)" gradientUnits="userSpaceOnUse">
					<stop  offset="6.000000e-02" style="stop-color:#0A1656"/>
					<stop  offset="0.89" style="stop-color:#4478AF"/>
				</radialGradient>
				<path class="st50" d="M54.2,373c-0.3,0.4-0.9,0.5-1.3,0.1c0,0,0,0,0,0c-0.4-0.3-0.5-1-0.2-1.4c0.3-0.4,1-0.5,1.4-0.2
					C54.5,371.9,54.6,372.5,54.2,373C54.2,373,54.2,373,54.2,373z M71.3,364.5c-0.8-0.7-2-0.6-2.7,0.2c-0.7,0.8-0.6,2,0.2,2.7
					c0.8,0.7,2,0.6,2.7-0.2c0,0,0,0,0,0C72.2,366.4,72.1,365.2,71.3,364.5L71.3,364.5z M59.4,384.5c-1.6-1.3-4-1.1-5.4,0.5
					c-1.3,1.6-1.1,4,0.5,5.4c1.6,1.3,3.9,1.1,5.3-0.4C61.3,388.4,61.1,386,59.4,384.5C59.5,384.6,59.5,384.6,59.4,384.5L59.4,384.5z
					 M31.2,366.6c-0.8-0.7-2-0.6-2.7,0.2s-0.6,2,0.2,2.7c0.8,0.7,2,0.6,2.7-0.2c0,0,0,0,0,0C32.1,368.5,32,367.3,31.2,366.6
					L31.2,366.6z"/>

					<radialGradient id="SVGID_53_" cx="538.36" cy="160.0273" r="2.8714" gradientTransform="matrix(1 0 0 -1 0 500)" gradientUnits="userSpaceOnUse">
					<stop  offset="6.000000e-02" style="stop-color:#E47E99"/>
					<stop  offset="0.53" style="stop-color:#E43D99"/>
					<stop  offset="0.99" style="stop-color:#B30058"/>
				</radialGradient>
				<path class="st51" d="M539,337.2c-1.5-0.4-3.1,0.6-3.5,2.1c-0.4,1.5,0.6,3.1,2.1,3.5c1.5,0.4,3.1-0.6,3.5-2.1
					C541.5,339.1,540.5,337.5,539,337.2C539,337.2,539,337.2,539,337.2z"/>

					<radialGradient id="SVGID_54_" cx="483.14" cy="67.92" r="2.78" gradientTransform="matrix(1 0 0 -1 0 500)" gradientUnits="userSpaceOnUse">
					<stop  offset="6.000000e-02" style="stop-color:#E47E99"/>
					<stop  offset="0.53" style="stop-color:#E43D99"/>
					<stop  offset="0.99" style="stop-color:#B30058"/>
				</radialGradient>
				<path class="st52" d="M483.8,429.3c-0.4,0.6-0.9,1.1-1.4,1.6c-0.6,0.3-1.3,0.4-2,0.6c1.3,0.6,2.1,2,2.1,3.4
					c0.4-0.6,0.9-1.1,1.4-1.6c0.6-0.3,1.3-0.4,2-0.5C484.6,432.1,483.8,430.8,483.8,429.3z"/>

					<radialGradient id="SVGID_55_" cx="530.5" cy="96.75" r="2.78" gradientTransform="matrix(1 0 0 -1 0 500)" gradientUnits="userSpaceOnUse">
					<stop  offset="6.000000e-02" style="stop-color:#E47E99"/>
					<stop  offset="0.53" style="stop-color:#E43D99"/>
					<stop  offset="0.99" style="stop-color:#B30058"/>
				</radialGradient>
				<path class="st53" d="M531.2,400.5c-0.6,1.3-2,2.1-3.5,2.1c1.3,0.6,2.1,2,2.1,3.5c0.4-0.6,0.9-1.1,1.4-1.6
					c0.6-0.3,1.3-0.4,2-0.6c-0.6-0.4-1.1-0.9-1.6-1.4C531.4,401.8,531.3,401.2,531.2,400.5z"/>

					<radialGradient id="SVGID_56_" cx="724.4" cy="140.28" r="2.78" gradientTransform="matrix(1 0 0 -1 0 500)" gradientUnits="userSpaceOnUse">
					<stop  offset="6.000000e-02" style="stop-color:#E47E99"/>
					<stop  offset="0.53" style="stop-color:#E43D99"/>
					<stop  offset="0.99" style="stop-color:#B30058"/>
				</radialGradient>
				<path class="st54" d="M725.1,356.9c-0.4,0.6-0.9,1.1-1.4,1.6c-0.6,0.3-1.3,0.4-2,0.5c0.6,0.4,1.1,0.9,1.6,1.4
					c0.3,0.6,0.4,1.3,0.5,2c0.4-0.6,0.9-1.1,1.4-1.6c0.6-0.3,1.3-0.4,2-0.6c-0.6-0.4-1.1-0.9-1.6-1.4
					C725.4,358.3,725.2,357.6,725.1,356.9z"/>

					<radialGradient id="SVGID_57_" cx="662.06" cy="22.22" r="2.78" gradientTransform="matrix(1 0 0 -1 0 500)" gradientUnits="userSpaceOnUse">
					<stop  offset="6.000000e-02" style="stop-color:#E47E99"/>
					<stop  offset="0.53" style="stop-color:#E43D99"/>
					<stop  offset="0.99" style="stop-color:#B30058"/>
				</radialGradient>
				<path class="st55" d="M662.7,475c-0.4,0.6-0.9,1.1-1.4,1.6c-0.6,0.3-1.3,0.4-2,0.6c0.6,0.4,1.1,0.9,1.6,1.4
					c0.3,0.6,0.4,1.3,0.5,2c0.4-0.6,0.9-1.1,1.4-1.6c0.6-0.3,1.3-0.4,2-0.5c-0.6-0.4-1.1-0.9-1.6-1.4
					C663,476.4,662.8,475.7,662.7,475z"/>

					<radialGradient id="SVGID_58_" cx="695.5232" cy="62.4317" r="17.4825" gradientTransform="matrix(1 0 0 -1 0 500)" gradientUnits="userSpaceOnUse">
					<stop  offset="6.000000e-02" style="stop-color:#E47E99"/>
					<stop  offset="0.53" style="stop-color:#E43D99"/>
					<stop  offset="0.99" style="stop-color:#B30058"/>
				</radialGradient>
				<path class="st56" d="M689.2,437.6c0.1-0.5,0.6-0.9,1.2-0.8c0.5,0.1,0.9,0.6,0.8,1.2c-0.1,0.5-0.6,0.9-1.2,0.8c0,0-0.1,0-0.1,0
					C689.4,438.7,689.1,438.2,689.2,437.6z M677.6,452.9c1,0.2,2.1-0.4,2.3-1.4s-0.4-2.1-1.4-2.3c-1-0.2-2.1,0.4-2.3,1.4
					c0,0,0,0,0,0C676,451.6,676.6,452.7,677.6,452.9z M679.3,429.7c2.1,0.5,4.1-0.8,4.6-2.8s-0.8-4.1-2.8-4.6
					c-2-0.5-4.1,0.8-4.6,2.8C675.9,427.1,677.2,429.2,679.3,429.7C679.2,429.7,679.3,429.7,679.3,429.7z M712.5,433.1
					c1,0.2,2.1-0.4,2.3-1.4s-0.4-2.1-1.4-2.3c-1-0.2-2.1,0.4-2.3,1.4C710.9,431.8,711.5,432.8,712.5,433.1
					C712.5,433.1,712.5,433.1,712.5,433.1z"/>

					<radialGradient id="SVGID_59_" cx="504.7678" cy="35.4678" r="17.5495" gradientTransform="matrix(1 0 0 -1 0 500)" gradientUnits="userSpaceOnUse">
					<stop  offset="6.000000e-02" style="stop-color:#E47E99"/>
					<stop  offset="0.53" style="stop-color:#E43D99"/>
					<stop  offset="0.99" style="stop-color:#B30058"/>
				</radialGradient>
				<path class="st57" d="M510.4,465.3c-0.2,0.5-0.8,0.7-1.3,0.5c-0.3-0.1-0.5-0.4-0.6-0.8c-0.1-0.5,0.3-1.1,0.8-1.1
					c0.5-0.1,1.1,0.3,1.1,0.8C510.5,464.9,510.5,465.1,510.4,465.3z M520.6,449.1c-1-0.2-2,0.6-2.2,1.6s0.6,2,1.6,2.2
					c1,0.2,2-0.6,2.2-1.6c0,0,0,0,0,0C522.4,450.2,521.6,449.3,520.6,449.1L520.6,449.1z M521,472.4c-2.1-0.3-4,1.1-4.4,3.2
					c-0.3,2.1,1.1,4,3.2,4.4c2.1,0.3,4-1.1,4.4-3.2c0,0,0,0,0,0C524.5,474.7,523.1,472.7,521,472.4L521,472.4z M487.5,471.8
					c-1-0.2-2,0.6-2.2,1.6c-0.2,1,0.6,2,1.6,2.2c1,0.2,2-0.6,2.2-1.6C489.3,473,488.6,472,487.5,471.8L487.5,471.8z"/>

					<radialGradient id="SVGID_60_" cx="174.11" cy="351.75" r="2.78" gradientTransform="matrix(1 0 0 -1 0 500)" gradientUnits="userSpaceOnUse">
					<stop  offset="6.000000e-02" style="stop-color:#E47E99"/>
					<stop  offset="0.53" style="stop-color:#E43D99"/>
					<stop  offset="0.99" style="stop-color:#B30058"/>
				</radialGradient>
				<path class="st58" d="M174.8,145.5c-0.4,0.6-0.9,1.1-1.4,1.6c-0.6,0.3-1.3,0.4-2,0.6c0.6,0.4,1.1,0.9,1.6,1.4
					c0.3,0.6,0.4,1.3,0.6,2c0.4-0.6,0.9-1.1,1.4-1.6c0.6-0.3,1.3-0.4,2-0.6c-0.6-0.4-1.1-0.9-1.6-1.4
					C175.1,146.8,174.9,146.2,174.8,145.5z"/>

					<radialGradient id="SVGID_61_" cx="110.06" cy="423.57" r="2.78" gradientTransform="matrix(1 0 0 -1 0 500)" gradientUnits="userSpaceOnUse">
					<stop  offset="6.000000e-02" style="stop-color:#E47E99"/>
					<stop  offset="0.53" style="stop-color:#E43D99"/>
					<stop  offset="0.99" style="stop-color:#B30058"/>
				</radialGradient>
				<path class="st59" d="M110.7,73.7c-0.4,0.6-0.9,1.1-1.4,1.6c-0.6,0.3-1.3,0.4-2,0.6c0.6,0.4,1.1,0.9,1.6,1.4
					c0.3,0.6,0.4,1.3,0.6,2c0.4-0.6,0.9-1.1,1.4-1.6c0.6-0.3,1.3-0.4,2-0.6c-0.6-0.4-1.1-0.9-1.6-1.4C111,75,110.8,74.3,110.7,73.7z
					"/>

					<radialGradient id="SVGID_62_" cx="157.43" cy="452.4" r="2.78" gradientTransform="matrix(1 0 0 -1 0 500)" gradientUnits="userSpaceOnUse">
					<stop  offset="6.000000e-02" style="stop-color:#E47E99"/>
					<stop  offset="0.53" style="stop-color:#E43D99"/>
					<stop  offset="0.99" style="stop-color:#B30058"/>
				</radialGradient>
				<path class="st60" d="M158.1,44.8c-0.4,0.6-0.9,1.1-1.4,1.6c-0.6,0.3-1.3,0.4-2,0.6c0.6,0.4,1.1,0.9,1.6,1.4
					c0.3,0.6,0.4,1.3,0.6,2c0.4-0.6,0.9-1.1,1.4-1.6c0.6-0.3,1.3-0.4,2-0.5c-0.6-0.4-1.1-0.9-1.6-1.4
					C158.4,46.2,158.2,45.5,158.1,44.8z"/>

					<radialGradient id="SVGID_63_" cx="351.32" cy="495.93" r="2.78" gradientTransform="matrix(1 0 0 -1 0 500)" gradientUnits="userSpaceOnUse">
					<stop  offset="6.000000e-02" style="stop-color:#E47E99"/>
					<stop  offset="0.53" style="stop-color:#E43D99"/>
					<stop  offset="0.99" style="stop-color:#B30058"/>
				</radialGradient>
				<path class="st61" d="M352,1.3c-0.4,0.6-0.9,1.1-1.4,1.6c-0.6,0.3-1.3,0.4-2,0.5c0.6,0.4,1.1,0.9,1.6,1.4c0.3,0.6,0.4,1.3,0.6,2
					c0.4-0.6,0.9-1.1,1.4-1.6c0.6-0.3,1.3-0.4,2-0.6c-0.6-0.4-1.1-0.9-1.6-1.4C352.3,2.6,352.1,2,352,1.3z"/>

					<radialGradient id="SVGID_64_" cx="288.98" cy="377.87" r="2.78" gradientTransform="matrix(1 0 0 -1 0 500)" gradientUnits="userSpaceOnUse">
					<stop  offset="6.000000e-02" style="stop-color:#E47E99"/>
					<stop  offset="0.53" style="stop-color:#E43D99"/>
					<stop  offset="0.99" style="stop-color:#B30058"/>
				</radialGradient>
				<path class="st62" d="M289.6,119.3c-0.4,0.6-0.9,1.1-1.4,1.6c-0.6,0.3-1.3,0.4-2,0.6c0.6,0.4,1.1,0.9,1.6,1.4
					c0.3,0.6,0.4,1.3,0.6,2c0.4-0.6,0.9-1.1,1.4-1.6c0.6-0.3,1.3-0.4,2-0.6c-0.6-0.4-1.1-0.9-1.6-1.4
					C289.9,120.7,289.8,120,289.6,119.3z"/>

					<radialGradient id="SVGID_65_" cx="322.4489" cy="418.0815" r="17.4844" gradientTransform="matrix(1 0 0 -1 0 500)" gradientUnits="userSpaceOnUse">
					<stop  offset="6.000000e-02" style="stop-color:#E47E99"/>
					<stop  offset="0.53" style="stop-color:#E43D99"/>
					<stop  offset="0.99" style="stop-color:#B30058"/>
				</radialGradient>
				<path class="st63" d="M316.1,82c0.1-0.5,0.6-0.9,1.2-0.8c0.5,0.1,0.9,0.6,0.8,1.2c-0.1,0.5-0.6,0.9-1.2,0.8c0,0-0.1,0-0.1,0
					C316.3,83,316,82.5,316.1,82z M304.6,97.3c1,0.2,2.1-0.4,2.3-1.4c0.2-1-0.4-2.1-1.4-2.3c-1-0.2-2.1,0.4-2.3,1.4c0,0,0,0,0,0
					C302.9,96,303.5,97,304.6,97.3z M306.2,74.1c2.1,0.5,4.1-0.8,4.6-2.8s-0.8-4.1-2.8-4.6c-2.1-0.5-4.1,0.8-4.6,2.8c0,0,0,0,0,0
					C302.9,71.5,304.1,73.6,306.2,74.1C306.2,74.1,306.2,74.1,306.2,74.1z M339.4,77.4c1,0.2,2.1-0.4,2.3-1.4c0.2-1-0.4-2.1-1.4-2.3
					c-1-0.2-2.1,0.4-2.3,1.4c0,0,0,0,0,0C337.8,76.2,338.4,77.2,339.4,77.4z"/>

					<radialGradient id="SVGID_66_" cx="131.6971" cy="391.1163" r="17.5507" gradientTransform="matrix(1 0 0 -1 0 500)" gradientUnits="userSpaceOnUse">
					<stop  offset="6.000000e-02" style="stop-color:#E47E99"/>
					<stop  offset="0.53" style="stop-color:#E43D99"/>
					<stop  offset="0.99" style="stop-color:#B30058"/>
				</radialGradient>
				<path class="st64" d="M137.4,109.7c-0.1,0.5-0.6,0.9-1.1,0.8c-0.5-0.1-0.9-0.5-0.8-1.1c0,0,0,0,0,0c-0.1-0.5,0.3-1.1,0.8-1.1
					c0.5-0.1,1.1,0.3,1.1,0.8C137.5,109.3,137.4,109.5,137.4,109.7z M147.5,93.5c-1-0.2-2,0.6-2.2,1.6c-0.2,1,0.6,2,1.6,2.2
					c1,0.2,2-0.6,2.2-1.6C149.3,94.6,148.6,93.6,147.5,93.5C147.5,93.5,147.5,93.5,147.5,93.5z M147.9,116.7c-2.1-0.3-4,1.1-4.3,3.2
					s1.1,4,3.2,4.3c2.1,0.3,4-1.1,4.3-3.2C151.4,119,150,117,147.9,116.7C147.9,116.7,147.9,116.7,147.9,116.7z M114.5,116.2
					c-1-0.1-2,0.6-2.2,1.6c-0.2,1,0.6,2,1.6,2.2c1,0.2,2-0.6,2.2-1.6C116.2,117.3,115.5,116.3,114.5,116.2z"/>

					<radialGradient id="SVGID_67_" cx="400.16" cy="441.7993" r="2.0804" gradientTransform="matrix(1 0 0 -1 0 500)" gradientUnits="userSpaceOnUse">
					<stop  offset="6.000000e-02" style="stop-color:#E47E99"/>
					<stop  offset="0.53" style="stop-color:#E43D99"/>
					<stop  offset="0.99" style="stop-color:#B30058"/>
				</radialGradient>
				<path class="st65" d="M400.6,56.2c-1.1-0.3-2.3,0.4-2.5,1.5c-0.3,1.1,0.4,2.3,1.5,2.5s2.3-0.4,2.5-1.5c0,0,0,0,0,0
					C402.4,57.6,401.8,56.4,400.6,56.2C400.6,56.2,400.6,56.2,400.6,56.2z"/>

					<radialGradient id="SVGID_68_" cx="406.56" cy="322.86" r="2.02" gradientTransform="matrix(1 0 0 -1 0 500)" gradientUnits="userSpaceOnUse">
					<stop  offset="6.000000e-02" style="stop-color:#E47E99"/>
					<stop  offset="0.53" style="stop-color:#E43D99"/>
					<stop  offset="0.99" style="stop-color:#B30058"/>
				</radialGradient>
				<path class="st66" d="M407,175.1c-0.5,1-1.4,1.6-2.5,1.5c0.4,0.3,0.8,0.6,1.1,1c0.2,0.5,0.3,1,0.4,1.5c0.3-0.4,0.6-0.8,1-1.1
					c0.5-0.2,1-0.3,1.5-0.4c-0.4-0.3-0.8-0.6-1.1-1C407.2,176.1,407.1,175.6,407,175.1z"/>

					<radialGradient id="SVGID_69_" cx="360.09" cy="374.97" r="2.02" gradientTransform="matrix(1 0 0 -1 0 500)" gradientUnits="userSpaceOnUse">
					<stop  offset="6.000000e-02" style="stop-color:#E47E99"/>
					<stop  offset="0.53" style="stop-color:#E43D99"/>
					<stop  offset="0.99" style="stop-color:#B30058"/>
				</radialGradient>
				<path class="st67" d="M360.6,123c-0.3,0.4-0.6,0.8-1,1.1c-0.5,0.2-1,0.3-1.5,0.4c0.4,0.3,0.8,0.6,1.1,1c0.2,0.5,0.3,1,0.4,1.5
					c0.3-0.4,0.6-0.8,1-1.1c0.5-0.2,1-0.3,1.5-0.4c-0.4-0.3-0.8-0.6-1.1-1C360.8,124,360.6,123.5,360.6,123z"/>

					<radialGradient id="SVGID_70_" cx="394.46" cy="395.89" r="2.02" gradientTransform="matrix(1 0 0 -1 0 500)" gradientUnits="userSpaceOnUse">
					<stop  offset="6.000000e-02" style="stop-color:#E47E99"/>
					<stop  offset="0.53" style="stop-color:#E43D99"/>
					<stop  offset="0.99" style="stop-color:#B30058"/>
				</radialGradient>
				<path class="st68" d="M394.9,102.1c-0.3,0.4-0.6,0.8-1,1.1c-0.5,0.2-1,0.3-1.5,0.4c0.4,0.3,0.8,0.6,1.1,1c0.2,0.5,0.3,1,0.4,1.5
					c0.3-0.4,0.6-0.8,1-1.1c0.5-0.2,1-0.3,1.5-0.4c-0.4-0.3-0.8-0.6-1.1-1C395.2,103.1,395,102.6,394.9,102.1z"/>

					<radialGradient id="SVGID_71_" cx="535.14" cy="427.48" r="2.02" gradientTransform="matrix(1 0 0 -1 0 500)" gradientUnits="userSpaceOnUse">
					<stop  offset="6.000000e-02" style="stop-color:#E47E99"/>
					<stop  offset="0.53" style="stop-color:#E43D99"/>
					<stop  offset="0.99" style="stop-color:#B30058"/>
				</radialGradient>
				<path class="st69" d="M535.6,70.5c-0.3,0.4-0.6,0.8-1,1.1c-0.5,0.2-1,0.3-1.5,0.4c0.4,0.3,0.8,0.6,1.1,1c0.2,0.5,0.3,1,0.4,1.5
					c0.3-0.4,0.6-0.8,1-1.1c0.5-0.2,1-0.3,1.5-0.4c-0.4-0.3-0.8-0.6-1.2-1C535.8,71.5,535.7,71,535.6,70.5z"/>

					<radialGradient id="SVGID_72_" cx="489.91" cy="341.81" r="2.02" gradientTransform="matrix(1 0 0 -1 0 500)" gradientUnits="userSpaceOnUse">
					<stop  offset="6.000000e-02" style="stop-color:#E47E99"/>
					<stop  offset="0.53" style="stop-color:#E43D99"/>
					<stop  offset="0.99" style="stop-color:#B30058"/>
				</radialGradient>
				<path class="st70" d="M490.4,156.2c-0.3,0.4-0.6,0.8-1,1.1c-0.5,0.2-1,0.3-1.5,0.4c0.4,0.3,0.8,0.6,1.1,1c0.2,0.5,0.3,1,0.4,1.5
					c0.5-1,1.4-1.6,2.5-1.5c-0.4-0.3-0.8-0.6-1.1-1C490.6,157.2,490.5,156.7,490.4,156.2z"/>

					<radialGradient id="SVGID_73_" cx="514.2133" cy="370.986" r="12.6816" gradientTransform="matrix(1 0 0 -1 0 500)" gradientUnits="userSpaceOnUse">
					<stop  offset="6.000000e-02" style="stop-color:#E47E99"/>
					<stop  offset="0.53" style="stop-color:#E43D99"/>
					<stop  offset="0.99" style="stop-color:#B30058"/>
				</radialGradient>
				<path class="st71" d="M509.6,129.1c0.1-0.4,0.5-0.6,0.8-0.5c0.4,0.1,0.6,0.5,0.5,0.8s-0.5,0.6-0.8,0.5c0,0,0,0,0,0
					C509.7,129.8,509.5,129.5,509.6,129.1C509.6,129.1,509.6,129.1,509.6,129.1z M501.2,140.1c0.7,0.2,1.5-0.3,1.7-1
					c0.2-0.7-0.3-1.5-1-1.7c-0.7-0.2-1.5,0.3-1.7,1c0,0,0,0,0,0C500,139.2,500.5,139.9,501.2,140.1L501.2,140.1z M502.4,123.3
					c1.5,0.4,3-0.6,3.3-2.1c0.4-1.5-0.6-3-2.1-3.3c-1.5-0.4-3,0.6-3.3,2C500,121.5,500.9,122.9,502.4,123.3L502.4,123.3z
					 M526.5,125.8c0.7,0.2,1.5-0.3,1.7-1c0.2-0.7-0.3-1.5-1-1.7s-1.5,0.3-1.7,1S525.8,125.6,526.5,125.8
					C526.5,125.8,526.5,125.8,526.5,125.8z"/>

					<radialGradient id="SVGID_74_" cx="375.7832" cy="351.4294" r="12.7451" gradientTransform="matrix(1 0 0 -1 0 500)" gradientUnits="userSpaceOnUse">
					<stop  offset="6.000000e-02" style="stop-color:#E47E99"/>
					<stop  offset="0.53" style="stop-color:#E43D99"/>
					<stop  offset="0.99" style="stop-color:#B30058"/>
				</radialGradient>
				<path class="st72" d="M379.9,149.1c-0.1,0.4-0.4,0.6-0.8,0.6c-0.4-0.1-0.6-0.4-0.6-0.8s0.4-0.6,0.8-0.6
					C379.7,148.4,379.9,148.8,379.9,149.1z M387.3,137.4c-0.7-0.2-1.5,0.3-1.7,1s0.3,1.5,1,1.7c0.1,0,0.2,0,0.2,0
					c0.8,0.1,1.4-0.5,1.5-1.3C388.4,138.2,387.9,137.5,387.3,137.4z M387.5,154.3c-1.5-0.2-2.9,0.8-3.2,2.3
					c-0.2,1.5,0.8,2.9,2.3,3.2s2.9-0.8,3.2-2.3c0,0,0,0,0,0C390.1,155.9,389,154.5,387.5,154.3L387.5,154.3z M363.3,153.9
					c-0.8-0.1-1.5,0.4-1.6,1.2c-0.1,0.8,0.4,1.5,1.2,1.6c0.8,0.1,1.5-0.4,1.6-1.2c0,0,0,0,0,0C364.6,154.7,364,154,363.3,153.9
					L363.3,153.9z"/>

					<radialGradient id="SVGID_75_" cx="373.46" cy="60.31" r="2.0808" gradientTransform="matrix(1 0 0 -1 0 500)" gradientUnits="userSpaceOnUse">
					<stop  offset="6.000000e-02" style="stop-color:#E47E99"/>
					<stop  offset="0.53" style="stop-color:#E43D99"/>
					<stop  offset="0.99" style="stop-color:#B30058"/>
				</radialGradient>
				<path class="st73" d="M371.7,440.8c0.6,1,1.9,1.3,2.9,0.7s1.3-1.9,0.7-2.9l0,0c-0.6-1-1.9-1.3-2.9-0.7S371.1,439.8,371.7,440.8z
					"/>

					<radialGradient id="SVGID_76_" cx="453.03" cy="148.94" r="1.77" gradientTransform="matrix(1 0 0 -1 0 500)" gradientUnits="userSpaceOnUse">
					<stop  offset="6.000000e-02" style="stop-color:#E47E99"/>
					<stop  offset="0.53" style="stop-color:#E43D99"/>
					<stop  offset="0.99" style="stop-color:#B30058"/>
				</radialGradient>
				<path class="st74" d="M451.3,352.1c0.5-0.1,1-0.1,1.5-0.1c0.5,0.2,0.9,0.5,1.3,0.8c-0.1-0.5-0.1-1-0.1-1.5
					c0.2-0.5,0.5-0.9,0.8-1.3c-1,0.3-2.1,0.1-2.9-0.7c0.1,0.5,0.1,1,0.1,1.5C451.8,351.3,451.6,351.7,451.3,352.1z"/>

					<radialGradient id="SVGID_77_" cx="449.05" cy="79.23" r="1.77" gradientTransform="matrix(1 0 0 -1 0 500)" gradientUnits="userSpaceOnUse">
					<stop  offset="6.000000e-02" style="stop-color:#E47E99"/>
					<stop  offset="0.53" style="stop-color:#E43D99"/>
					<stop  offset="0.99" style="stop-color:#B30058"/>
				</radialGradient>
				<path class="st75" d="M447.3,421.9c0.5-0.1,1-0.1,1.5-0.1c0.5,0.2,0.9,0.5,1.3,0.8c-0.1-0.5-0.1-1-0.1-1.5
					c0.2-0.5,0.5-0.9,0.8-1.3c-1,0.3-2.1,0.1-2.8-0.7C448.4,420,448.1,421.1,447.3,421.9L447.3,421.9z"/>

					<radialGradient id="SVGID_78_" cx="409.95" cy="88.74" r="1.77" gradientTransform="matrix(1 0 0 -1 0 500)" gradientUnits="userSpaceOnUse">
					<stop  offset="6.000000e-02" style="stop-color:#E47E99"/>
					<stop  offset="0.53" style="stop-color:#E43D99"/>
					<stop  offset="0.99" style="stop-color:#B30058"/>
				</radialGradient>
				<path class="st76" d="M408.2,412.3c0.5-0.1,1-0.1,1.5-0.1c0.5,0.2,0.9,0.4,1.3,0.7c-0.1-0.5-0.1-1-0.1-1.5
					c0.2-0.5,0.5-0.9,0.8-1.3c-0.5,0.1-1,0.1-1.5,0.1c-0.5-0.2-0.9-0.5-1.3-0.8c0.1,0.5,0.1,1,0.1,1.5
					C408.7,411.5,408.5,411.9,408.2,412.3z"/>

					<radialGradient id="SVGID_79_" cx="288.14" cy="165.89" r="1.77" gradientTransform="matrix(1 0 0 -1 0 500)" gradientUnits="userSpaceOnUse">
					<stop  offset="6.000000e-02" style="stop-color:#E47E99"/>
					<stop  offset="0.53" style="stop-color:#E43D99"/>
					<stop  offset="0.99" style="stop-color:#B30058"/>
				</radialGradient>
				<path class="st77" d="M286.4,335.2c1-0.4,2.1-0.1,2.9,0.7c-0.1-0.5-0.1-1-0.1-1.5c0.2-0.5,0.5-0.9,0.8-1.3
					c-0.5,0.1-1,0.1-1.5,0.1c-0.5-0.2-0.9-0.5-1.3-0.8c0.1,0.5,0.1,1,0.1,1.5C286.9,334.3,286.7,334.8,286.4,335.2z"/>

					<radialGradient id="SVGID_80_" cx="380.7" cy="194.48" r="1.77" gradientTransform="matrix(1 0 0 -1 0 500)" gradientUnits="userSpaceOnUse">
					<stop  offset="6.000000e-02" style="stop-color:#E47E99"/>
					<stop  offset="0.53" style="stop-color:#E43D99"/>
					<stop  offset="0.99" style="stop-color:#B30058"/>
				</radialGradient>
				<path class="st78" d="M378.9,306.6c1-0.4,2.1-0.1,2.9,0.7c-0.1-0.5-0.1-1-0.1-1.5c0.2-0.5,0.5-0.9,0.8-1.3
					c-1,0.4-2.1,0.1-2.9-0.7c0.1,0.5,0.1,1,0.1,1.5C379.5,305.7,379.2,306.2,378.9,306.6z"/>

					<radialGradient id="SVGID_81_" cx="344.7263" cy="186.2568" r="13.7401" gradientTransform="matrix(1 0 0 -1 0 500)" gradientUnits="userSpaceOnUse">
					<stop  offset="6.000000e-02" style="stop-color:#E47E99"/>
					<stop  offset="0.53" style="stop-color:#E43D99"/>
					<stop  offset="0.99" style="stop-color:#B30058"/>
				</radialGradient>
				<path class="st79" d="M346.2,312.2c-0.3,0.2-0.8,0.1-0.9-0.2c-0.2-0.3-0.1-0.8,0.2-0.9c0.3-0.2,0.7-0.1,0.9,0.2
					C346.6,311.6,346.5,312,346.2,312.2C346.2,312.2,346.2,312.2,346.2,312.2z M359.9,310.3c-0.4-0.7-1.3-0.9-1.9-0.5
					c-0.7,0.4-0.9,1.3-0.5,1.9c0.4,0.7,1.3,0.9,1.9,0.5c0,0,0,0,0,0C360.1,311.8,360.3,310.9,359.9,310.3L359.9,310.3z M347.2,321.4
					c-0.8-1.3-2.5-1.7-3.8-0.9c-1.3,0.8-1.7,2.5-0.9,3.8c0.8,1.3,2.5,1.7,3.8,0.9C347.6,324.4,348,322.7,347.2,321.4
					C347.2,321.4,347.2,321.4,347.2,321.4z M331.9,302.6c-0.4-0.6-1.2-0.9-1.9-0.5s-0.9,1.2-0.5,1.9c0.4,0.6,1.2,0.9,1.9,0.5
					C332.1,304.1,332.3,303.2,331.9,302.6C331.9,302.6,331.9,302.6,331.9,302.6L331.9,302.6z"/>

					<radialGradient id="SVGID_82_" cx="453.9701" cy="112.5242" r="13.6578" gradientTransform="matrix(1 0 0 -1 0 500)" gradientUnits="userSpaceOnUse">
					<stop  offset="6.000000e-02" style="stop-color:#E47E99"/>
					<stop  offset="0.53" style="stop-color:#E43D99"/>
					<stop  offset="0.99" style="stop-color:#B30058"/>
				</radialGradient>
				<path class="st80" d="M452.1,389.7c0.3-0.2,0.7-0.2,1,0.1c0,0,0,0,0,0c0.2,0.3,0.2,0.7-0.1,1s-0.7,0.2-1-0.1l0,0
					C451.7,390.4,451.8,390,452.1,389.7z M438.6,392.8c0.5,0.6,1.4,0.7,2,0.2c0.5-0.5,0.6-1.2,0.3-1.8c-0.4-0.6-1.3-0.8-1.9-0.4
					s-0.8,1.3-0.4,1.9C438.5,392.7,438.5,392.8,438.6,392.8z M450.3,380.7c0.9,1.2,2.6,1.5,3.9,0.6c1.2-0.9,1.5-2.6,0.6-3.9
					s-2.6-1.5-3.9-0.6c0,0,0,0,0,0C449.7,377.7,449.4,379.4,450.3,380.7C450.3,380.7,450.3,380.7,450.3,380.7z M467.2,398.1
					c0.5,0.6,1.3,0.8,1.9,0.3c0.6-0.5,0.8-1.3,0.3-1.9c-0.5-0.6-1.3-0.8-1.9-0.3c0,0,0,0,0,0C466.9,396.6,466.7,397.5,467.2,398.1z"
					/>

					<radialGradient id="SVGID_83_" cx="138.27" cy="117.57" r="2.87" gradientTransform="matrix(1 0 0 -1 0 500)" gradientUnits="userSpaceOnUse">
					<stop  offset="6.000000e-02" style="stop-color:#E47E99"/>
					<stop  offset="0.53" style="stop-color:#E43D99"/>
					<stop  offset="0.99" style="stop-color:#B30058"/>
				</radialGradient>
				<path class="st81" d="M135.8,383.9c0.8,1.4,2.6,1.8,3.9,1c1.4-0.8,1.8-2.6,1-3.9c-0.8-1.4-2.6-1.8-3.9-1
					C135.5,380.8,135,382.6,135.8,383.9C135.8,383.9,135.8,383.9,135.8,383.9z"/>

					<radialGradient id="SVGID_84_" cx="247.94" cy="239.72" r="2.44" gradientTransform="matrix(1 0 0 -1 0 500)" gradientUnits="userSpaceOnUse">
					<stop  offset="6.000000e-02" style="stop-color:#E47E99"/>
					<stop  offset="0.53" style="stop-color:#E43D99"/>
					<stop  offset="0.99" style="stop-color:#B30058"/>
				</radialGradient>
				<path class="st82" d="M245.5,261.8c0.7-0.1,1.4-0.1,2.1-0.1c0.6,0.3,1.3,0.6,1.8,1c-0.1-0.7-0.1-1.4-0.1-2.1
					c0.3-0.6,0.6-1.3,1-1.8c-0.7,0.1-1.4,0.1-2.1,0.1c-0.6-0.3-1.3-0.6-1.8-1c0.1,0.7,0.1,1.4,0.1,2.1
					C246.2,260.6,245.9,261.2,245.5,261.8z"/>

					<radialGradient id="SVGID_85_" cx="242.45" cy="143.65" r="2.44" gradientTransform="matrix(1 0 0 -1 0 500)" gradientUnits="userSpaceOnUse">
					<stop  offset="6.000000e-02" style="stop-color:#E47E99"/>
					<stop  offset="0.53" style="stop-color:#E43D99"/>
					<stop  offset="0.99" style="stop-color:#B30058"/>
				</radialGradient>
				<path class="st83" d="M240,357.8c0.7-0.1,1.4-0.1,2.1-0.1c0.6,0.3,1.3,0.6,1.8,1c-0.1-0.7-0.1-1.4-0.1-2.1
					c0.3-0.6,0.6-1.3,1-1.8c-0.7,0.1-1.4,0.1-2.1,0.1c-0.6-0.3-1.3-0.6-1.8-1C241.4,355.3,241,356.8,240,357.8L240,357.8z"/>

					<radialGradient id="SVGID_86_" cx="188.57" cy="156.76" r="2.44" gradientTransform="matrix(1 0 0 -1 0 500)" gradientUnits="userSpaceOnUse">
					<stop  offset="6.000000e-02" style="stop-color:#E47E99"/>
					<stop  offset="0.53" style="stop-color:#E43D99"/>
					<stop  offset="0.99" style="stop-color:#B30058"/>
				</radialGradient>
				<path class="st84" d="M186.1,344.7c0.7-0.1,1.4-0.1,2.1-0.1c0.6,0.3,1.3,0.6,1.8,1c-0.1-0.7-0.1-1.4-0.1-2.1
					c0.3-0.6,0.6-1.3,1-1.8c-0.7,0.1-1.4,0.1-2.1,0.1c-0.6-0.3-1.3-0.6-1.8-1c0.1,0.7,0.1,1.4,0.1,2.1
					C186.9,343.6,186.5,344.2,186.1,344.7z"/>

					<radialGradient id="SVGID_87_" cx="20.68" cy="263.08" r="2.44" gradientTransform="matrix(1 0 0 -1 0 500)" gradientUnits="userSpaceOnUse">
					<stop  offset="6.000000e-02" style="stop-color:#E47E99"/>
					<stop  offset="0.53" style="stop-color:#E43D99"/>
					<stop  offset="0.99" style="stop-color:#B30058"/>
				</radialGradient>
				<path class="st85" d="M18.2,238.4c0.7-0.1,1.4-0.1,2.1-0.1c0.6,0.3,1.3,0.6,1.8,1.1c-0.1-0.7-0.1-1.4-0.1-2.1
					c0.3-0.6,0.6-1.3,1-1.8c-0.7,0.1-1.4,0.1-2.1,0.1c-0.6-0.3-1.3-0.6-1.8-1.1c0.1,0.7,0.1,1.4,0.1,2.1
					C19,237.2,18.7,237.8,18.2,238.4z"/>

					<radialGradient id="SVGID_88_" cx="148.25" cy="302.48" r="2.44" gradientTransform="matrix(1 0 0 -1 0 500)" gradientUnits="userSpaceOnUse">
					<stop  offset="6.000000e-02" style="stop-color:#E47E99"/>
					<stop  offset="0.53" style="stop-color:#E43D99"/>
					<stop  offset="0.99" style="stop-color:#B30058"/>
				</radialGradient>
				<path class="st86" d="M145.8,199c0.7-0.1,1.4-0.1,2.1-0.1c0.6,0.3,1.3,0.6,1.8,1c-0.1-0.7-0.1-1.4-0.1-2.1
					c0.3-0.6,0.6-1.3,1-1.8c-0.7,0.1-1.4,0.1-2.1,0.1c-0.6-0.3-1.3-0.6-1.8-1c0.1,0.7,0.1,1.4,0.1,2.1
					C146.5,197.8,146.2,198.4,145.8,199z"/>

					<radialGradient id="SVGID_89_" cx="98.6909" cy="291.1488" r="18.9354" gradientTransform="matrix(1 0 0 -1 0 500)" gradientUnits="userSpaceOnUse">
					<stop  offset="6.000000e-02" style="stop-color:#E47E99"/>
					<stop  offset="0.53" style="stop-color:#E43D99"/>
					<stop  offset="0.99" style="stop-color:#B30058"/>
				</radialGradient>
				<path class="st87" d="M100.7,206.7c-0.5,0.3-1,0.1-1.3-0.3c-0.2-0.5-0.1-1,0.3-1.3c0.4-0.3,1-0.1,1.3,0.3c0,0,0,0,0,0
					C101.3,205.9,101.1,206.4,100.7,206.7z M119.6,204.1c-0.6-0.9-1.7-1.2-2.6-0.6c-0.9,0.6-1.2,1.7-0.6,2.6
					c0.6,0.9,1.7,1.2,2.6,0.6C119.9,206.2,120.2,205,119.6,204.1C119.6,204.1,119.6,204.1,119.6,204.1L119.6,204.1z M102.1,219.4
					c-1.1-1.8-3.5-2.4-5.3-1.3c-1.8,1.1-2.4,3.5-1.3,5.3c1.1,1.8,3.5,2.4,5.3,1.3c0,0,0,0,0,0C102.6,223.5,103.2,221.2,102.1,219.4
					C102.1,219.4,102.1,219.4,102.1,219.4z M81,193.4c-0.5-0.9-1.7-1.2-2.6-0.6c-0.9,0.5-1.2,1.7-0.6,2.6c0.5,0.9,1.7,1.2,2.6,0.6
					c0,0,0,0,0,0C81.3,195.5,81.5,194.3,81,193.4z"/>

					<radialGradient id="SVGID_90_" cx="249.2616" cy="189.5381" r="18.7917" gradientTransform="matrix(1 0 0 -1 0 500)" gradientUnits="userSpaceOnUse">
					<stop  offset="6.000000e-02" style="stop-color:#E47E99"/>
					<stop  offset="0.53" style="stop-color:#E43D99"/>
					<stop  offset="0.99" style="stop-color:#B30058"/>
				</radialGradient>
				<path class="st88" d="M246.6,313.6c0.5-0.2,1.1,0.1,1.3,0.6c0.1,0.3,0.1,0.7-0.1,0.9c-0.4,0.3-1,0.2-1.3-0.2
					C246.1,314.5,246.2,313.9,246.6,313.6z M228,317.8c0.6,0.9,1.8,1,2.7,0.4c0.9-0.6,1-1.8,0.4-2.7s-1.8-1-2.7-0.4
					C227.6,315.8,227.4,317,228,317.8L228,317.8z M244.2,301.1c1.3,1.7,3.6,2.1,5.3,0.8c1.7-1.3,2.1-3.6,0.8-5.3
					c-1.3-1.7-3.6-2.1-5.3-0.8C243.3,297,242.9,299.4,244.2,301.1z M267.5,325.1c0.6,0.8,1.8,1,2.7,0.4s1-1.8,0.4-2.7
					s-1.8-1-2.7-0.4c0,0,0,0,0,0C267,323.1,266.8,324.3,267.5,325.1L267.5,325.1z"/>

					<radialGradient id="SVGID_91_" cx="656.3735" cy="238.4554" r="2.8656" gradientTransform="matrix(1 0 0 -1 0 500)" gradientUnits="userSpaceOnUse">
					<stop  offset="6.000000e-02" style="stop-color:#E47E99"/>
					<stop  offset="0.53" style="stop-color:#E43D99"/>
					<stop  offset="0.99" style="stop-color:#B30058"/>
				</radialGradient>
				<path class="st89" d="M653.9,263c0.8,1.3,2.6,1.8,3.9,0.9c1.3-0.8,1.8-2.6,0.9-3.9c-0.8-1.3-2.6-1.8-3.9-0.9
					C653.5,259.9,653.1,261.7,653.9,263C653.9,263,653.9,263,653.9,263z"/>

					<radialGradient id="SVGID_92_" cx="706.67" cy="277.65" r="2.44" gradientTransform="matrix(1 0 0 -1 0 500)" gradientUnits="userSpaceOnUse">
					<stop  offset="6.000000e-02" style="stop-color:#E47E99"/>
					<stop  offset="0.53" style="stop-color:#E43D99"/>
					<stop  offset="0.99" style="stop-color:#B30058"/>
				</radialGradient>
				<path class="st90" d="M704.2,223.9c0.7-0.1,1.4-0.1,2.1-0.1c0.6,0.3,1.2,0.6,1.8,1c-0.1-0.7-0.1-1.4-0.1-2.1
					c0.3-0.6,0.6-1.3,1-1.8c-0.7,0.1-1.4,0.1-2.1,0.1c-0.6-0.3-1.3-0.6-1.8-1c0.1,0.7,0.1,1.4,0.1,2.1
					C705,222.7,704.6,223.3,704.2,223.9z"/>

					<radialGradient id="SVGID_93_" cx="538.78" cy="383.97" r="2.44" gradientTransform="matrix(1 0 0 -1 0 500)" gradientUnits="userSpaceOnUse">
					<stop  offset="6.000000e-02" style="stop-color:#E47E99"/>
					<stop  offset="0.53" style="stop-color:#E43D99"/>
					<stop  offset="0.99" style="stop-color:#B30058"/>
				</radialGradient>
				<path class="st91" d="M536.3,117.5c0.7-0.1,1.4-0.1,2.1-0.1c0.6,0.3,1.3,0.6,1.8,1c-0.1-0.7-0.1-1.4-0.1-2.1
					c0.3-0.6,0.6-1.3,1-1.8c-0.7,0.1-1.4,0.1-2.1,0.1c-0.6-0.3-1.3-0.6-1.8-1c0.1,0.7,0.1,1.4,0.1,2.1
					C537.1,116.3,536.8,117,536.3,117.5z"/>

					<radialGradient id="SVGID_94_" cx="666.35" cy="423.37" r="2.44" gradientTransform="matrix(1 0 0 -1 0 500)" gradientUnits="userSpaceOnUse">
					<stop  offset="6.000000e-02" style="stop-color:#E47E99"/>
					<stop  offset="0.53" style="stop-color:#E43D99"/>
					<stop  offset="0.99" style="stop-color:#B30058"/>
				</radialGradient>
				<path class="st92" d="M663.9,78.1c0.7-0.1,1.4-0.2,2.1-0.1c0.6,0.3,1.3,0.6,1.8,1c-0.1-0.7-0.1-1.4-0.1-2.1
					c0.3-0.6,0.6-1.3,1-1.8c-0.7,0.1-1.4,0.1-2.1,0.1c-0.6-0.3-1.3-0.6-1.8-1c0.2,0.7,0.2,1.4,0.2,2.1
					C664.7,76.9,664.3,77.6,663.9,78.1z"/>

					<radialGradient id="SVGID_95_" cx="616.7731" cy="412.0337" r="18.9444" gradientTransform="matrix(1 0 0 -1 0 500)" gradientUnits="userSpaceOnUse">
					<stop  offset="6.000000e-02" style="stop-color:#E47E99"/>
					<stop  offset="0.53" style="stop-color:#E43D99"/>
					<stop  offset="0.99" style="stop-color:#B30058"/>
				</radialGradient>
				<path class="st93" d="M618.8,85.8c-0.4,0.3-1,0.1-1.3-0.3c0,0,0,0,0,0c-0.4-0.4-0.5-1-0.1-1.4c0.4-0.4,1-0.5,1.4-0.1
					c0.2,0.1,0.3,0.3,0.3,0.5C619.4,85,619.2,85.6,618.8,85.8z M637.7,83.2c-0.6-0.9-1.7-1.2-2.6-0.6c-0.9,0.6-1.2,1.7-0.6,2.6
					c0.6,0.9,1.7,1.2,2.6,0.6C638,85.3,638.3,84.1,637.7,83.2C637.7,83.2,637.7,83.2,637.7,83.2z M620.2,98.5
					c-1.1-1.8-3.5-2.4-5.3-1.3s-2.4,3.5-1.3,5.3c1.1,1.8,3.5,2.4,5.2,1.3C620.7,102.6,621.3,100.3,620.2,98.5z M599.1,72.6
					c-0.6-0.9-1.7-1.2-2.6-0.6c-0.9,0.6-1.2,1.7-0.6,2.6c0.6,0.9,1.7,1.2,2.6,0.6C599.3,74.6,599.6,73.5,599.1,72.6
					C599.1,72.6,599.1,72.6,599.1,72.6z"/>

					<radialGradient id="SVGID_96_" cx="767.3613" cy="310.4297" r="18.7911" gradientTransform="matrix(1 0 0 -1 0 500)" gradientUnits="userSpaceOnUse">
					<stop  offset="6.000000e-02" style="stop-color:#E47E99"/>
					<stop  offset="0.53" style="stop-color:#E43D99"/>
					<stop  offset="0.99" style="stop-color:#B30058"/>
				</radialGradient>
				<path class="st94" d="M764.7,192.7c0.4-0.3,1-0.2,1.3,0.2c0.4,0.3,0.5,1,0.2,1.4s-1,0.5-1.4,0.2c-0.2-0.1-0.3-0.3-0.4-0.5
					C764.3,193.6,764.3,193,764.7,192.7z M746.1,196.9c0.6,0.8,1.8,1,2.7,0.4c0.8-0.6,1-1.8,0.4-2.7c-0.6-0.8-1.8-1-2.7-0.4
					C745.7,194.9,745.5,196.1,746.1,196.9C746.1,196.9,746.1,196.9,746.1,196.9z M762.3,180.2c1.2,1.7,3.6,2.1,5.4,0.8
					c1.7-1.2,2.1-3.6,0.8-5.4c-1.2-1.7-3.6-2.1-5.4-0.8c0,0,0,0,0,0C761.4,176.1,761,178.5,762.3,180.2z M785.5,204.2
					c0.6,0.8,1.8,1,2.7,0.4s1-1.8,0.4-2.7c-0.6-0.8-1.8-1-2.7-0.4C785.1,202.2,784.9,203.4,785.5,204.2
					C785.5,204.2,785.5,204.2,785.5,204.2L785.5,204.2z"/>

					<radialGradient id="SVGID_97_" cx="727.47" cy="421.48" r="134.72" gradientTransform="matrix(1 0 0 -1 0 500)" gradientUnits="userSpaceOnUse">
					<stop  offset="6.000000e-02" style="stop-color:#001256"/>
					<stop  offset="0.24" style="stop-color:#001154;stop-opacity:0.94"/>
					<stop  offset="0.44" style="stop-color:#00104D;stop-opacity:0.78"/>
					<stop  offset="0.66" style="stop-color:#000E41;stop-opacity:0.51"/>
					<stop  offset="0.89" style="stop-color:#000A31;stop-opacity:0.13"/>
					<stop  offset="0.96" style="stop-color:#00092B;stop-opacity:0"/>
				</radialGradient>
				<circle class="st95" cx="727.5" cy="78.5" r="134.7"/>

					<radialGradient id="SVGID_98_" cx="55.6705" cy="411.9723" r="134.72" gradientTransform="matrix(1 0 0 -1 7.303726e-04 500.0042)" gradientUnits="userSpaceOnUse">
					<stop  offset="6.000000e-02" style="stop-color:#430056"/>
					<stop  offset="0.24" style="stop-color:#410054;stop-opacity:0.94"/>
					<stop  offset="0.44" style="stop-color:#3C004D;stop-opacity:0.78"/>
					<stop  offset="0.66" style="stop-color:#320041;stop-opacity:0.51"/>
					<stop  offset="0.89" style="stop-color:#260031;stop-opacity:0.13"/>
					<stop  offset="0.96" style="stop-color:#21002B;stop-opacity:0"/>
				</radialGradient>
				<circle class="st96" cx="55.7" cy="88" r="134.7"/>

					<radialGradient id="SVGID_99_" cx="53.0542" cy="43.9373" r="134.72" gradientTransform="matrix(1 0 0 -1 -2.037405e-03 500.0014)" gradientUnits="userSpaceOnUse">
					<stop  offset="6.000000e-02" style="stop-color:#001256"/>
					<stop  offset="0.24" style="stop-color:#001154;stop-opacity:0.94"/>
					<stop  offset="0.44" style="stop-color:#00104D;stop-opacity:0.78"/>
					<stop  offset="0.66" style="stop-color:#000E41;stop-opacity:0.51"/>
					<stop  offset="0.89" style="stop-color:#000A31;stop-opacity:0.13"/>
					<stop  offset="0.96" style="stop-color:#00092B;stop-opacity:0"/>
				</radialGradient>
				<circle class="st97" cx="53.1" cy="456.1" r="134.7"/>

					<radialGradient id="SVGID_100_" cx="590.33" cy="74.59" r="194.68" gradientTransform="matrix(1 0 0 -1 0 500)" gradientUnits="userSpaceOnUse">
					<stop  offset="6.000000e-02" style="stop-color:#430056"/>
					<stop  offset="0.24" style="stop-color:#410054;stop-opacity:0.94"/>
					<stop  offset="0.44" style="stop-color:#3C004D;stop-opacity:0.78"/>
					<stop  offset="0.66" style="stop-color:#320041;stop-opacity:0.51"/>
					<stop  offset="0.89" style="stop-color:#260031;stop-opacity:0.13"/>
					<stop  offset="0.96" style="stop-color:#21002B;stop-opacity:0"/>
				</radialGradient>
				<circle class="st98" cx="590.3" cy="425.4" r="194.7"/>

					<radialGradient id="SVGID_101_" cx="370.1209" cy="270.1832" r="194.68" gradientTransform="matrix(1 0 0 -1 7.473339e-04 499.9962)" gradientUnits="userSpaceOnUse">
					<stop  offset="6.000000e-02" style="stop-color:#001256"/>
					<stop  offset="0.24" style="stop-color:#001154;stop-opacity:0.94"/>
					<stop  offset="0.44" style="stop-color:#00104D;stop-opacity:0.78"/>
					<stop  offset="0.66" style="stop-color:#000E41;stop-opacity:0.51"/>
					<stop  offset="0.89" style="stop-color:#000A31;stop-opacity:0.13"/>
					<stop  offset="0.96" style="stop-color:#00092B;stop-opacity:0"/>
				</radialGradient>
				<circle class="st99" cx="370.1" cy="229.8" r="194.7"/>

					<radialGradient id="SVGID_102_" cx="300.4445" cy="197.4976" r="307.5863" gradientTransform="matrix(1 0 0 -1 0 500)" gradientUnits="userSpaceOnUse">
					<stop  offset="6.000000e-02" style="stop-color:#001256"/>
					<stop  offset="0.24" style="stop-color:#001154;stop-opacity:0.94"/>
					<stop  offset="0.44" style="stop-color:#00104D;stop-opacity:0.78"/>
					<stop  offset="0.66" style="stop-color:#000E41;stop-opacity:0.51"/>
					<stop  offset="0.89" style="stop-color:#000A31;stop-opacity:0.13"/>
					<stop  offset="0.96" style="stop-color:#00092B;stop-opacity:0"/>
				</radialGradient>
				<path class="st100" d="M-16.2,275.5c136.9-99,284.8-185,445.2-238c29.8-9.9,60.2-18.6,91.5-21.8c22.5-2.3,49.7,0.8,60.3,20.7
					c3.8,7.2,4.7,15.6,4.1,23.7c-2.6,33.8-29.6,60-54.5,82.9c-33.5,30.8-66.7,62.2-102.5,90.3c-36.5,28.7-75.8,54-110.1,85.4
					s-63.9,70.1-74.4,115.4c-2.2,9.4-2.9,20.7,4.2,27.1c7.5,6.7,19.2,4.2,28.8,1.2c105.9-33.5,207.2-84.5,317.2-99.8
					c7.4-1,15.3-1.8,21.9,1.6c13.5,7.1,13.3,26.6,8.2,40.9c-8.6,24.1-25.3,44.4-43,62.8c-43.4,45.2-94.4,82.2-145.1,119
					c-3.1-15.9-24.4-18.9-40.5-17.7c-42.8,3.2-85.3,10.1-126.9,20.8c-6-12.1,6.3-25,17.2-33l118.3-86.9
					c-70.9,1-136.2,37.2-205.9,50.1c-15,2.8-30.5,4.4-45.4,1.2s-29.2-12.2-35.8-25.9s-4.7-30,1.4-43.9s16-25.5,25.7-37
					c41.2-48.6,88.3-95.8,125.2-147.7c5.9-8.3,10.6-18,10.3-28.2c-0.1-3.9-1.1-8-3.6-11c-5.5-6.5-15.9-5.4-23.9-2.3
					c-27,10.4-54.9,28.8-77.1,47.1c-29.9,24.7-63.8,45.8-96.9,65.9c-14.5,8.8-29.5,17.4-46.1,20.4s-35.5-0.6-46.8-13.2
					c-14.7-16.3-12.4-41.7-5.4-62.5c8.2-24.4,21.7-46.7,39.4-65.4"/>

					<radialGradient id="SVGID_103_" cx="543.1448" cy="399.4994" r="331.358" gradientTransform="matrix(1 0 0 -1 0 500)" gradientUnits="userSpaceOnUse">
					<stop  offset="6.000000e-02" style="stop-color:#001256"/>
					<stop  offset="0.24" style="stop-color:#001154;stop-opacity:0.94"/>
					<stop  offset="0.44" style="stop-color:#00104D;stop-opacity:0.78"/>
					<stop  offset="0.66" style="stop-color:#000E41;stop-opacity:0.51"/>
					<stop  offset="0.89" style="stop-color:#000A31;stop-opacity:0.13"/>
					<stop  offset="0.96" style="stop-color:#00092B;stop-opacity:0"/>
				</radialGradient>
				<path class="st101" d="M929.8,145.4c-66.4,43.7-126.8,96.3-194.5,138.2s-145.2,73.4-224.6,68.5c-1.6,0-3.2-0.3-4.7-0.9
					c-7.7-3.6-1.9-15.3,4.4-21c44.7-40.7,85.6-85.5,122.2-133.7c17.8-23.5,34.6-47.8,48.6-73.8c6.2-11.4,36.3-68.7,5.9-72.4
					c-14.3-1.7-34.1,6.4-45.7,14.2C621.6,78,606.3,97,590.7,115.2c-33,38.4-69,74.3-107.4,107.3c-13,11.1-26.4,22-41.9,29.3
					c-3.3,1.6-7,3-10.6,2.1c-10.9-2.6-7.4-19.2-0.8-28.3c18.1-25.2,40.7-46.9,60-71.1s-26.4-2-23.4-32.9c1.6-16.7,60.3-86,46.5-95.6
					c-16.2-11.2-38.3-4.6-56.1,3.9c-50.4,24.2-93.7,60.3-139.2,92.7s-95.1,62.1-150.3,70.1c-4.1,0.6-8.6,1-12.3-0.8
					c-10.6-5-7.5-20.9-1.9-31.2c19-35.2,46.8-64.8,74.3-93.9L355.9-69c20.1-21.3,40.5-42.8,64.9-58.9s53.8-26.5,82.9-23.1
					L392.3-25.4c-9.1,10.2-18.8,23.3-14.3,36.2c28.1,1.7,53.5-15,77.8-29.1c34.5-20,71.1-36.1,109.2-47.9c9.4-2.9,21.8-4.6,27.2,3.7
					c3.8,5.8,1.8,13.5-1,19.9C569.3,8,511.5,38.4,496.4,91.5c-1.3,4.5-2.2,9.5-0.1,13.6c4.9,9.8,19.7,6.1,29.2,0.7
					c52.9-30,99.2-70.1,149-105.2s104.9-65.6,165.3-72.3c24-2.7,52.7,1,64.8,21.9c12.9,22.5-0.9,50.6-15.9,71.7
					c-28.1,39.8-61,75.9-98,107.6c-25.5,21.8-53.3,42-71.8,70c-6.8,10.3-12.3,21.9-12.4,34.2s6.5,25.2,17.9,29.7
					c6.2,2.4,13.1,2.2,19.7,1.5c56.2-5.8,105.9-42.5,162.2-47.4c9.4-0.8,20-0.3,26.5,6.6c6.8,7.2,6.3,19.1,1.5,27.7
					s-13.2,14.7-21.3,20.3c-49.7,34.1-104,60.9-161.2,79.7"/>

					<radialGradient id="SVGID_104_" cx="647.2333" cy="123.0233" r="199.1167" gradientTransform="matrix(1 0 0 -1 0 500)" gradientUnits="userSpaceOnUse">
					<stop  offset="6.000000e-02" style="stop-color:#430056"/>
					<stop  offset="0.24" style="stop-color:#410054;stop-opacity:0.94"/>
					<stop  offset="0.44" style="stop-color:#3C004D;stop-opacity:0.78"/>
					<stop  offset="0.66" style="stop-color:#320041;stop-opacity:0.51"/>
					<stop  offset="0.89" style="stop-color:#260031;stop-opacity:0.13"/>
					<stop  offset="0.96" style="stop-color:#21002B;stop-opacity:0"/>
				</radialGradient>
				<path class="st102" d="M756.8,183.2C673.4,257.8,579.2,320,499.6,398.6c-29.3,29-58.3,64.6-56.7,105.8c0.1,2.7,0.4,5.5,1.9,7.8
					c3.2,4.8,10.3,4.8,16,3.8c72.1-12,123.8-82,195.8-94.9c0.7,10.4-7.4,19-14.8,26.3c-33.2,32.5-66.1,69.2-75.8,114.7
					c-0.5,2.3-0.8,5,0.7,6.8c1.7,2.1,4.8,2,7.5,1.6c38.6-5.3,73-27.3,101.9-53.4s53.7-56.4,82-83.1c32.1-30.2,69.2-56.2,93.5-93.1
					c-6.8-4.4-15.9-3.5-23.1,0.2s-12.8,9.8-18.3,15.7c-29.4,31.3-60.6,60.9-93.5,88.6c-12.6,10.7-26.2,21.4-42.3,24.8
					c31.1-43.4,78.8-75.1,100.2-123.9c1.7-3.8,3.2-8.1,1.6-12c-1.4-3.5-5-5.6-8.6-6.8c-13.8-4.8-29.1-0.3-42.4,5.7
					c-41.1,18.5-76.6,51.5-121.2,58.4c-6.5,1-15,0.1-16.7-6.2c-0.9-3.2,0.5-6.6,2.1-9.5c14.9-28.9,42.8-48.2,68.7-67.6
					c36.7-27.5,72.6-58.6,92-100c2.7-5.8,5.1-12.6,2.6-18.6s-12.4-8.1-15.2-2.3"/>

					<radialGradient id="SVGID_105_" cx="123.9685" cy="401.2083" r="202.5825" gradientTransform="matrix(1 0 0 -1 0 500)" gradientUnits="userSpaceOnUse">
					<stop  offset="6.000000e-02" style="stop-color:#430056"/>
					<stop  offset="0.24" style="stop-color:#410054;stop-opacity:0.94"/>
					<stop  offset="0.44" style="stop-color:#3C004D;stop-opacity:0.78"/>
					<stop  offset="0.66" style="stop-color:#320041;stop-opacity:0.51"/>
					<stop  offset="0.89" style="stop-color:#260031;stop-opacity:0.13"/>
					<stop  offset="0.96" style="stop-color:#21002B;stop-opacity:0"/>
				</radialGradient>
				<path class="st103" d="M296.3-54.3c-42.2,48.2-64.5,124-116.1,162c-7.1,5.2-14.5,10.3-23.2,12.3s-18.5,0.4-24.3-6.2
					s-6.2-16.3-4.7-25c6.9-39.5,44.7-66.8,56.6-105.2c2.4-7.9,3.2-17.8-3-23.3c-4.9-4.3-12.2-4.1-18.5-2.6
					c-20.6,4.9-36.8,20.2-52.6,34.3C92.9,7.6,74.6,22.1,55.5,35.7c-7.7,5.5-17.7,11-26.1,6.6c6.5-16.9,18.9-30.7,31-44.2
					c22.5-25,45-50.2,61.7-79.3c4.6-8,8.8-17.8,4.9-26.2c-12.7-0.4-24.1,7.3-34.1,15.1C40.6-51.8-1.7,0-43.6,51.3
					c-10.7,13-21.5,26.4-27.8,42c-2.4,6-4.2,12.5-3.2,18.9s5.1,12.7,11.3,14.6c3.8,1.2,7.8,0.6,11.7-0.4c20-5.1,34.8-21.1,49.7-35.4
					C13,76.7,29,63.4,45.8,51.4c11.2-8,24.7-15.7,37.9-12c-5.5,10.2-15.7,17-24.3,24.9S42.9,82.9,44.5,94.5c0.3,2.3,1.1,4.7,2.9,6.2
					c3.5,2.9,8.8,1.1,12.8-1.2c26.1-14.7,43.6-40.5,64.2-62.2c5-5.2,11.2-10.6,18.3-9.9c-9,27.3-28.3,49.9-48.4,70.5
					C52.5,140.4,4.9,177.6-31.4,225c-11,14.3-21.2,30.4-22.8,48.4c-0.7,7.8,0.4,16.1,5.2,22.3c10.3,13.2,31,10.3,46.6,4.5
					c47-17.4,87.3-49.2,123.9-83.6c75.4-71.1,137.8-155,184.2-247.7c4.4-8.8,8.9-18,17-23.6L296.3-54.3z"/>
			</g>
		</g>
	</g>
</g>
</svg>
